<?xml version="1.0" encoding="utf-8"?>
<svg xmlns="http://www.w3.org/2000/svg" style="margin: auto; background: rgba(0, 0, 0, 0) none repeat scroll 0% 0%; display: block; shape-rendering: auto;" width="280" height="250" preserveAspectRatio="xMidYMid">
<style type="text/css">
  text {
    text-anchor: middle; font-size: 42px; opacity: 0;
  }
</style>
<g style="transform-origin: 140px 125px 0px; transform: scale(0.525);">
<g transform="translate(140,125)">
  <g transform="translate(0,0)"><g class="path" style="opacity: 1; transform-origin: -160.334px -7.93359px 0px; animation: 1s linear -0.594s infinite normal forwards running fade-7fafdf61-9943-4171-a94c-c803e3bd1e6c;"><path d="M21.88-56.25L21.88 0L6.37 0L6.37-56.25L21.88-56.25" fill="#000000" stroke="none" stroke-width="none" transform="translate(-174.45831298828125,20.191302551269537)" style="fill: rgb(0, 0, 0);"></path></g><g class="path" style="opacity: 1; transform-origin: -134.889px -26.2539px 0px; animation: 1s linear -0.528s infinite normal forwards running fade-7fafdf61-9943-4171-a94c-c803e3bd1e6c;"><path d="M32.42-56.25L46.72-56.25L44.34-36.64L34.80-36.64L32.42-56.25" fill="#000000" stroke="none" stroke-width="none" transform="translate(-174.45831298828125,20.191302551269537)" style="fill: rgb(0, 0, 0);"></path></g><g class="path" style="opacity: 1; transform-origin: -83.1484px 1.89063px 0px; animation: 1s linear -0.462s infinite normal forwards running fade-7fafdf61-9943-4171-a94c-c803e3bd1e6c;"><path d="M126.21-26.33L126.21-26.33L126.21-26.33Q126.21-21.68 125.12-16.64L125.12-16.64L125.12-16.64Q124.02-11.60 122.05-6.82L122.05-6.82L122.05-6.82Q120.08-2.03 117.30 2.23L117.30 2.23L117.30 2.23Q114.53 6.48 111.13 9.61L111.13 9.61L106.17 6.91L106.17 6.91Q107.30 4.88 108.24 2.34L108.24 2.34L108.24 2.34Q109.18-0.20 109.96-3.01L109.96-3.01L109.96-3.01Q110.74-5.82 111.33-8.79L111.33-8.79L111.33-8.79Q111.91-11.76 112.32-14.71L112.32-14.71L112.32-14.71Q112.73-17.66 112.93-20.43L112.93-20.43L112.93-20.43Q113.13-23.20 113.13-25.63L113.13-25.63L113.13-25.63Q113.13-26.99 113.05-28.59L113.05-28.59L113.05-28.59Q112.97-30.20 112.71-31.80L112.71-31.80L112.71-31.80Q112.46-33.40 111.95-34.86L111.95-34.86L111.95-34.86Q111.45-36.33 110.57-37.48L110.57-37.48L110.57-37.48Q109.69-38.63 108.38-39.32L108.38-39.32L108.38-39.32Q107.07-40 105.23-40L105.23-40L105.23-40Q103.44-40 102.17-39.04L102.17-39.04L102.17-39.04Q100.90-38.09 100-36.56L100-36.56L100-36.56Q99.10-35.04 98.57-33.13L98.57-33.13L98.57-33.13Q98.05-31.21 97.77-29.28L97.77-29.28L97.77-29.28Q97.50-27.34 97.40-25.59L97.40-25.59L97.40-25.59Q97.30-23.83 97.30-22.62L97.30-22.62L97.30 0L84.14 0L84.14-21.02L84.14-21.02Q84.14-22.38 84.18-24.32L84.18-24.32L84.18-24.32Q84.22-26.25 84.08-28.36L84.08-28.36L84.08-28.36Q83.95-30.47 83.57-32.56L83.57-32.56L83.57-32.56Q83.20-34.65 82.40-36.29L82.40-36.29L82.40-36.29Q81.60-37.93 80.23-38.96L80.23-38.96L80.23-38.96Q78.87-40 76.80-40L76.80-40L76.80-40Q75.04-40 73.85-39.02L73.85-39.02L73.85-39.02Q72.66-38.05 71.86-36.50L71.86-36.50L71.86-36.50Q71.05-34.96 70.61-33.03L70.61-33.03L70.61-33.03Q70.16-31.09 69.94-29.16L69.94-29.16L69.94-29.16Q69.73-27.23 69.69-25.49L69.69-25.49L69.69-25.49Q69.65-23.75 69.65-22.62L69.65-22.62L69.65 0L56.41 0L56.41-45.12L61.48-45.12L66.33-34.61L66.33-34.61Q67.97-40.08 71.50-43.14L71.50-43.14L71.50-43.14Q75.04-46.21 80.90-46.21L80.90-46.21L80.90-46.21Q86.17-46.21 89.65-44.02L89.65-44.02L89.65-44.02Q93.13-41.84 95.12-36.91L95.12-36.91L95.12-36.91Q96.25-39.06 97.64-40.78L97.64-40.78L97.64-40.78Q99.02-42.50 100.72-43.71L100.72-43.71L100.72-43.71Q102.42-44.92 104.49-45.57L104.49-45.57L104.49-45.57Q106.56-46.21 109.06-46.21L109.06-46.21L109.06-46.21Q113.67-46.21 116.93-44.71L116.93-44.71L116.93-44.71Q120.20-43.20 122.27-40.55L122.27-40.55L122.27-40.55Q124.34-37.89 125.27-34.24L125.27-34.24L125.27-34.24Q126.21-30.59 126.21-26.33" fill="#000000" stroke="none" stroke-width="none" transform="translate(-174.45831298828125,20.191302551269537)" style="fill: rgb(0, 0, 0);"></path></g><g class="path" style="opacity: 1; transform-origin: 1.18164px -2.46484px 0px; animation: 1s linear -0.396s infinite normal forwards running fade-7fafdf61-9943-4171-a94c-c803e3bd1e6c;"><path d="M196.48-14.41L196.48-14.41L196.48-14.41Q196.48-11.45 195.63-9.14L195.63-9.14L195.63-9.14Q194.77-6.84 193.28-5.14L193.28-5.14L193.28-5.14Q191.80-3.44 189.77-2.29L189.77-2.29L189.77-2.29Q187.73-1.13 185.41-0.43L185.41-0.43L185.41-0.43Q183.09 0.27 180.55 0.59L180.55 0.59L180.55 0.59Q178.01 0.90 175.51 0.90L175.51 0.90L175.51 0.90Q172.15 0.90 169.57 0.47L169.57 0.47L169.57 0.47Q166.99 0.04 164.65-0.92L164.65-0.92L164.65-0.92Q162.30-1.88 159.98-3.40L159.98-3.40L159.98-3.40Q157.66-4.92 154.80-7.11L154.80-7.11L162.50-13.40L162.50-13.40Q163.55-11.41 165.29-9.79L165.29-9.79L165.29-9.79Q167.03-8.16 168.91-6.99L168.91-6.99L168.91-6.99Q170.78-5.82 172.54-5.20L172.54-5.20L172.54-5.20Q174.30-4.57 175.39-4.57L175.39-4.57L175.39-4.57Q176.29-4.57 177.42-4.63L177.42-4.63L177.42-4.63Q178.55-4.69 179.73-4.86L179.73-4.86L179.73-4.86Q180.90-5.04 182.03-5.39L182.03-5.39L182.03-5.39Q183.16-5.74 184.04-6.35L184.04-6.35L184.04-6.35Q184.92-6.95 185.45-7.87L185.45-7.87L185.45-7.87Q185.98-8.79 185.98-10.08L185.98-10.08L185.98-10.08Q185.98-11.41 185.29-12.40L185.29-12.40L185.29-12.40Q184.61-13.40 183.52-14.14L183.52-14.14L183.52-14.14Q182.42-14.88 181.02-15.39L181.02-15.39L181.02-15.39Q179.61-15.90 178.18-16.29L178.18-16.29L178.18-16.29Q176.76-16.68 175.43-16.97L175.43-16.97L175.43-16.97Q174.10-17.27 173.13-17.54L173.13-17.54L173.13-17.54Q171.33-18.05 169.34-18.57L169.34-18.57L169.34-18.57Q167.34-19.10 165.39-19.79L165.39-19.79L165.39-19.79Q163.44-20.47 161.66-21.41L161.66-21.41L161.66-21.41Q159.88-22.34 158.54-23.65L158.54-23.65L158.54-23.65Q157.19-24.96 156.39-26.74L156.39-26.74L156.39-26.74Q155.59-28.52 155.59-30.90L155.59-30.90L155.59-30.90Q155.59-35.27 157.32-38.22L157.32-38.22L157.32-38.22Q159.06-41.17 161.91-42.95L161.91-42.95L161.91-42.95Q164.77-44.73 168.40-45.47L168.40-45.47L168.40-45.47Q172.03-46.21 175.78-46.21L175.78-46.21L175.78-46.21Q178.36-46.21 181.21-45.68L181.21-45.68L181.21-45.68Q184.06-45.16 186.76-44.12L186.76-44.12L186.76-44.12Q189.45-43.09 191.80-41.60L191.80-41.60L191.80-41.60Q194.14-40.12 195.70-38.20L195.70-38.20L188.01-31.88L188.01-31.88Q187.15-34.22 185.76-35.90L185.76-35.90L185.76-35.90Q184.38-37.58 182.75-38.65L182.75-38.65L182.75-38.65Q181.13-39.73 179.43-40.23L179.43-40.23L179.43-40.23Q177.73-40.74 176.29-40.74L176.29-40.74L176.29-40.74Q174.88-40.74 173.13-40.63L173.13-40.63L173.13-40.63Q171.37-40.51 169.82-39.96L169.82-39.96L169.82-39.96Q168.28-39.41 167.21-38.30L167.21-38.30L167.21-38.30Q166.13-37.19 166.13-35.23L166.13-35.23L166.13-35.23Q166.13-33.83 166.78-32.83L166.78-32.83L166.78-32.83Q167.42-31.84 168.48-31.11L168.48-31.11L168.48-31.11Q169.53-30.39 170.88-29.90L170.88-29.90L170.88-29.90Q172.23-29.41 173.63-29.04L173.63-29.04L173.63-29.04Q175.04-28.67 176.37-28.40L176.37-28.40L176.37-28.40Q177.70-28.13 178.75-27.81L178.75-27.81L178.75-27.81Q180.55-27.30 182.56-26.78L182.56-26.78L182.56-26.78Q184.57-26.25 186.52-25.57L186.52-25.57L186.52-25.57Q188.48-24.88 190.29-23.96L190.29-23.96L190.29-23.96Q192.11-23.05 193.48-21.72L193.48-21.72L193.48-21.72Q194.84-20.39 195.66-18.61L195.66-18.61L195.66-18.61Q196.48-16.84 196.48-14.41" fill="#000000" stroke="none" stroke-width="none" transform="translate(-174.45831298828125,20.191302551269537)" style="fill: rgb(0, 0, 0);"></path></g><g class="path" style="opacity: 1; transform-origin: 51.793px -2.46484px 0px; animation: 1s linear -0.33s infinite normal forwards running fade-7fafdf61-9943-4171-a94c-c803e3bd1e6c;"><path d="M250.23-45.12L250.23 0L237.03 0L237.03-5.39L237.03-5.39Q234.69-2.19 231.39-0.64L231.39-0.64L231.39-0.64Q228.09 0.90 224.14 0.90L224.14 0.90L224.14 0.90Q218.98 0.90 214.92-0.94L214.92-0.94L214.92-0.94Q210.86-2.77 208.05-5.96L208.05-5.96L208.05-5.96Q205.23-9.14 203.75-13.44L203.75-13.44L203.75-13.44Q202.27-17.73 202.27-22.66L202.27-22.66L202.27-22.66Q202.27-27.58 203.75-31.88L203.75-31.88L203.75-31.88Q205.23-36.17 208.05-39.36L208.05-39.36L208.05-39.36Q210.86-42.54 214.92-44.38L214.92-44.38L214.92-44.38Q218.98-46.21 224.14-46.21L224.14-46.21L224.14-46.21Q226.76-46.21 229.12-45.43L229.12-45.43L229.12-45.43Q231.48-44.65 233.46-43.22L233.46-43.22L233.46-43.22Q235.43-41.80 236.93-39.79L236.93-39.79L236.93-39.79Q238.44-37.77 239.30-35.31L239.30-35.31L245.16-45.12L250.23-45.12zM236.95-22.66L236.95-22.66L236.95-22.66Q236.95-24.41 236.78-26.37L236.78-26.37L236.78-26.37Q236.60-28.32 236.17-30.23L236.17-30.23L236.17-30.23Q235.74-32.15 234.98-33.89L234.98-33.89L234.98-33.89Q234.22-35.63 233.03-36.97L233.03-36.97L233.03-36.97Q231.84-38.32 230.16-39.10L230.16-39.10L230.16-39.10Q228.48-39.88 226.25-39.88L226.25-39.88L226.25-39.88Q224.02-39.88 222.38-39.08L222.38-39.08L222.38-39.08Q220.74-38.28 219.57-36.93L219.57-36.93L219.57-36.93Q218.40-35.59 217.64-33.83L217.64-33.83L217.64-33.83Q216.88-32.07 216.45-30.16L216.45-30.16L216.45-30.16Q216.02-28.24 215.84-26.31L215.84-26.31L215.84-26.31Q215.66-24.38 215.66-22.66L215.66-22.66L215.66-22.66Q215.66-20.94 215.84-18.98L215.84-18.98L215.84-18.98Q216.02-17.03 216.45-15.12L216.45-15.12L216.45-15.12Q216.88-13.20 217.64-11.45L217.64-11.45L217.64-11.45Q218.40-9.69 219.57-8.34L219.57-8.34L219.57-8.34Q220.74-6.99 222.38-6.19L222.38-6.19L222.38-6.19Q224.02-5.39 226.25-5.39L226.25-5.39L226.25-5.39Q228.28-5.39 229.86-6.23L229.86-6.23L229.86-6.23Q231.45-7.07 232.64-8.48L232.64-8.48L232.64-8.48Q233.83-9.88 234.65-11.68L234.65-11.68L234.65-11.68Q235.47-13.48 235.98-15.39L235.98-15.39L235.98-15.39Q236.48-17.30 236.72-19.20L236.72-19.20L236.72-19.20Q236.95-21.09 236.95-22.66" fill="#000000" stroke="none" stroke-width="none" transform="translate(-174.45831298828125,20.191302551269537)" style="fill: rgb(0, 0, 0);"></path></g><g class="path" style="opacity: 1; transform-origin: 93.5313px -35.8027px 0px; animation: 1s linear -0.264s infinite normal forwards running fade-7fafdf61-9943-4171-a94c-c803e3bd1e6c;"><path d="M275.20-56.02L275.20-56.02L275.20-56.02Q275.20-54.53 274.63-53.20L274.63-53.20L274.63-53.20Q274.06-51.88 273.09-50.90L273.09-50.90L273.09-50.90Q272.11-49.92 270.80-49.36L270.80-49.36L270.80-49.36Q269.49-48.79 268.01-48.79L268.01-48.79L268.01-48.79Q266.52-48.79 265.20-49.36L265.20-49.36L265.20-49.36Q263.87-49.92 262.89-50.90L262.89-50.90L262.89-50.90Q261.91-51.88 261.35-53.20L261.35-53.20L261.35-53.20Q260.78-54.53 260.78-56.02L260.78-56.02L260.78-56.02Q260.78-57.50 261.35-58.81L261.35-58.81L261.35-58.81Q261.91-60.12 262.89-61.09L262.89-61.09L262.89-61.09Q263.87-62.07 265.20-62.64L265.20-62.64L265.20-62.64Q266.52-63.20 268.01-63.20L268.01-63.20L268.01-63.20Q269.49-63.20 270.80-62.64L270.80-62.64L270.80-62.64Q272.11-62.07 273.09-61.09L273.09-61.09L273.09-61.09Q274.06-60.12 274.63-58.81L274.63-58.81L274.63-58.81Q275.20-57.50 275.20-56.02" fill="#000000" stroke="none" stroke-width="none" transform="translate(-174.45831298828125,20.191302551269537)" style="fill: rgb(0, 0, 0);"></path></g><g class="path" style="opacity: 1; transform-origin: 89.5469px 8.04102px 0px; animation: 1s linear -0.198s infinite normal forwards running fade-7fafdf61-9943-4171-a94c-c803e3bd1e6c;"><path d="M274.61-45.12L274.61-13.05L274.61-13.05Q274.61-8.40 273.44-3.61L273.44-3.61L273.44-3.61Q272.27 1.17 270.14 5.64L270.14 5.64L270.14 5.64Q268.01 10.12 265.06 14.04L265.06 14.04L265.06 14.04Q262.11 17.97 258.55 20.82L258.55 20.82L253.40 17.70L253.40 17.70Q255.39 14.96 256.88 11.50L256.88 11.50L256.88 11.50Q258.36 8.05 259.36 4.34L259.36 4.34L259.36 4.34Q260.35 0.63 260.86-3.14L260.86-3.14L260.86-3.14Q261.37-6.91 261.37-10.31L261.37-10.31L261.37-45.12L274.61-45.12" fill="#000000" stroke="none" stroke-width="none" transform="translate(-174.45831298828125,20.191302551269537)" style="fill: rgb(0, 0, 0);"></path></g><g class="path" style="opacity: 1; transform-origin: 117.672px -35.8027px 0px; animation: 1s linear -0.132s infinite normal forwards running fade-7fafdf61-9943-4171-a94c-c803e3bd1e6c;"><path d="M299.34-56.02L299.34-56.02L299.34-56.02Q299.34-54.53 298.77-53.20L298.77-53.20L298.77-53.20Q298.20-51.88 297.23-50.90L297.23-50.90L297.23-50.90Q296.25-49.92 294.92-49.36L294.92-49.36L294.92-49.36Q293.59-48.79 292.11-48.79L292.11-48.79L292.11-48.79Q290.63-48.79 289.32-49.36L289.32-49.36L289.32-49.36Q288.01-49.92 287.03-50.90L287.03-50.90L287.03-50.90Q286.05-51.88 285.49-53.20L285.49-53.20L285.49-53.20Q284.92-54.53 284.92-56.02L284.92-56.02L284.92-56.02Q284.92-57.50 285.49-58.81L285.49-58.81L285.49-58.81Q286.05-60.12 287.03-61.09L287.03-61.09L287.03-61.09Q288.01-62.07 289.32-62.64L289.32-62.64L289.32-62.64Q290.63-63.20 292.11-63.20L292.11-63.20L292.11-63.20Q293.59-63.20 294.92-62.64L294.92-62.64L294.92-62.64Q296.25-62.07 297.23-61.09L297.23-61.09L297.23-61.09Q298.20-60.12 298.77-58.81L298.77-58.81L298.77-58.81Q299.34-57.50 299.34-56.02" fill="#000000" stroke="none" stroke-width="none" transform="translate(-174.45831298828125,20.191302551269537)" style="fill: rgb(0, 0, 0);"></path></g><g class="path" style="opacity: 1; transform-origin: 117.672px -2.34961px 0px; animation: 1s linear -0.066s infinite normal forwards running fade-7fafdf61-9943-4171-a94c-c803e3bd1e6c;"><path d="M298.75-45.08L298.75 0L285.51 0L285.51-45.08L298.75-45.08" fill="#000000" stroke="none" stroke-width="none" transform="translate(-174.45831298828125,20.191302551269537)" style="fill: rgb(0, 0, 0);"></path></g><g class="path" style="opacity: 1; transform-origin: 156.826px -10.1426px 0px; animation: 1s linear 0s infinite normal forwards running fade-7fafdf61-9943-4171-a94c-c803e3bd1e6c;"><path d="M355.27-61.72L355.27 0L350.20 0L344.34-9.80L344.34-9.80Q343.48-7.34 341.97-5.35L341.97-5.35L341.97-5.35Q340.47-3.36 338.50-1.93L338.50-1.93L338.50-1.93Q336.52-0.51 334.16 0.27L334.16 0.27L334.16 0.27Q331.80 1.05 329.18 1.05L329.18 1.05L329.18 1.05Q324.02 1.05 319.96-0.78L319.96-0.78L319.96-0.78Q315.90-2.62 313.09-5.80L313.09-5.80L313.09-5.80Q310.27-8.98 308.79-13.28L308.79-13.28L308.79-13.28Q307.30-17.58 307.30-22.50L307.30-22.50L307.30-22.50Q307.30-27.42 308.79-31.72L308.79-31.72L308.79-31.72Q310.27-36.02 313.09-39.18L313.09-39.18L313.09-39.18Q315.90-42.34 319.96-44.18L319.96-44.18L319.96-44.18Q324.02-46.02 329.18-46.02L329.18-46.02L329.18-46.02Q333.13-46.02 336.43-44.49L336.43-44.49L336.43-44.49Q339.73-42.97 342.07-39.73L342.07-39.73L342.07-61.72L355.27-61.72zM341.99-22.50L341.99-22.50L341.99-22.50Q341.99-24.06 341.76-25.94L341.76-25.94L341.76-25.94Q341.52-27.81 341.02-29.73L341.02-29.73L341.02-29.73Q340.51-31.64 339.69-33.44L339.69-33.44L339.69-33.44Q338.87-35.23 337.68-36.64L337.68-36.64L337.68-36.64Q336.48-38.05 334.90-38.89L334.90-38.89L334.90-38.89Q333.32-39.73 331.29-39.73L331.29-39.73L331.29-39.73Q329.06-39.73 327.42-38.93L327.42-38.93L327.42-38.93Q325.78-38.13 324.61-36.78L324.61-36.78L324.61-36.78Q323.44-35.43 322.68-33.67L322.68-33.67L322.68-33.67Q321.91-31.91 321.48-30L321.48-30L321.48-30Q321.05-28.09 320.88-26.15L320.88-26.15L320.88-26.15Q320.70-24.22 320.70-22.50L320.70-22.50L320.70-22.50Q320.70-20.78 320.88-18.85L320.88-18.85L320.88-18.85Q321.05-16.91 321.48-15L321.48-15L321.48-15Q321.91-13.09 322.68-11.31L322.68-11.31L322.68-11.31Q323.44-9.53 324.61-8.18L324.61-8.18L324.61-8.18Q325.78-6.84 327.42-6.04L327.42-6.04L327.42-6.04Q329.06-5.23 331.29-5.23L331.29-5.23L331.29-5.23Q333.52-5.23 335.20-6.02L335.20-6.02L335.20-6.02Q336.88-6.80 338.07-8.14L338.07-8.14L338.07-8.14Q339.26-9.49 340.02-11.23L340.02-11.23L340.02-11.23Q340.78-12.97 341.21-14.90L341.21-14.90L341.21-14.90Q341.64-16.84 341.82-18.79L341.82-18.79L341.82-18.79Q341.99-20.74 341.99-22.50" fill="#000000" stroke="none" stroke-width="none" transform="translate(-174.45831298828125,20.191302551269537)" style="fill: rgb(0, 0, 0);"></path></g></g>
</g>
</g>
<style id="fade-7fafdf61-9943-4171-a94c-c803e3bd1e6c" data-anikit="">@keyframes fade-7fafdf61-9943-4171-a94c-c803e3bd1e6c
{
  0% {
    animation-timing-function: cubic-bezier(0.2057,0.573,0.3723,0.9184);
    opacity: 1;
  }
  100% {
    opacity: 0;
  }
}</style></svg>