<?xml version="1.0" encoding="utf-8"?>
<!-- Generator: Adobe Illustrator 24.1.1, SVG Export Plug-In . SVG Version: 6.00 Build 0)  -->
<svg version="1.1" id="Layer_1" xmlns="http://www.w3.org/2000/svg" xmlns:xlink="http://www.w3.org/1999/xlink" x="0px" y="0px"
	 viewBox="0 0 512 512" style="enable-background:new 0 0 512 512;" xml:space="preserve">
<g>
	<path d="M175.8,316.6c-15.2-11.9-31.4-23.4-42.4-39.5c-23.3-28.4-41.2-61.4-53.5-96c-7.4-22.5-9.9-46.6-19.5-68.2
		C50.4,97.2,62.1,80,79.3,75c7.7-1.5,21.1-8.7,4.9-3.5c-14.6,10.7-16-9.7-1-11c10.2-1.4,14-9.7,10.5-17.2c-11-7.1,26.6-15,7.7-25.6
		c-19.7-21.2,27.5-25.3,15.9-1.2c-2.8,18.5,33-3.4,24.7,18c8.4,10.3,31.6,2.3,31,16.7c12.3,0.8,16.5,11.2,28,12
		c12,5.4,33.6,9.6,37.7,23.1c-11.8,9.4-39.3-19.4-40.6,6.6c3.6,38.4,2.7,77.9,16.7,114.4c6.6,22.1,22.7,39.5,37.3,56.8
		c13.9,16.9,32.7,28.8,51.9,38.8c16.8,7.9,35,13.2,53.4,16.5c7.4-5.7,20.6-26.9,32.2-17.9c0.6,10-23,21-1.1,19.9
		c12.9-3.9,21.8,10,32.4-2.5c9.8,11.6,40.6-7.4,33.7,16.3c-9.4,6.1-23.1,2.4-32.5,10.8c-15.5-7.8-27.9,6.9-45.1,5.1
		c-19.1,3.4-38.5,4.8-57.9,4.8c-31.8-2.5-64.2-3.6-94.4-14.6C207.4,336,190.8,326.3,175.8,316.6z M202.6,328.3
		c16.6,7.2,32.9,14.8,51.1,17c28.9,4,58.7,10.2,87.7,4.6c-13.1-5.9-26.7,2.3-39.8-4.2c-15.7,3.4-32.5-0.9-48.5-3
		c-18.1-8.1-37.7-13.6-54.7-24.1c-21.2-7.7,11,9.9,16.7,11.4c13.3,7.5-14.6-3.9-18.5-7c-11.1-6.2-12.5-4.9-1.1,1.4
		C197.9,325.7,200.2,327.1,202.6,328.3z M171,305.9c16.1,6-0.1-11.3-7.4-10.3c-3.3-5.7-12.5-9.3-6-12.3
		c-11.7,4.1-12.3-15.4-17.8-12.7c-12.4-3.9-4.8-17.8-19.6-26.3c-1.3-9-14.7-16.7-18.9-30.2c-1.9-6.9-15-26.8-7-8.3
		c6.9,17.8,19,33.1,29.1,48.3c7.8,14.5,17.1,29.7,31.3,38.7C159.6,297.4,164.2,304.5,171,305.9z M124.6,255
		C125.2,252.5,127.6,260.2,124.6,255z M190.3,313.1C193.9,311.5,185.2,311,190.3,313.1z M199,316.2C198.1,311.8,195,318.7,199,316.2
		z M210,320.8C215.2,315.8,202,317.7,210,320.8z M228.7,331.3C231.9,326.6,218.6,329.5,228.7,331.3z M192.7,306.2
		C200.8,300.9,182.3,306.1,192.7,306.2z M200.9,310.2C200.7,307.5,198,311.5,200.9,310.2z M242,335.9c6.6,4.2,38.5,9.1,18.5,1.7
		C257.1,338.3,223.4,328,242,335.9z M176.8,285.1C176.2,282.4,166.6,282.1,176.8,285.1z M195.9,296.3
		C200.9,292.8,185.6,293.6,195.9,296.3z M212,306.1C219.1,303.4,200.4,303.4,212,306.1z M169.1,276.7c7.7,5.9,31.2,0.8,11.9-3.5
		c-8.8-4.7-28.7-7.9-15.1,2.8L169.1,276.7z M222.9,309.5C226.1,304,209.4,306.4,222.9,309.5z M206.5,296.5c18.9,5.3-15.9-12-4.7-2
		l2.5,1.1L206.5,296.5z M239.3,315.5C257.2,315.6,223.1,313,239.3,315.5z M162.2,266.3C161.5,263,157.7,266.6,162.2,266.3z
		 M269.6,332.5C270.1,326.4,263.8,337,269.6,332.5z M192.7,285C191.7,281.8,187.1,284.9,192.7,285z M163.9,264.2
		C174.1,263.6,149.8,259.7,163.9,264.2z M129.6,242.1C128.4,237.2,118.4,233.2,129.6,242.1z M219.5,299.1
		C217.6,296.9,218.6,299.6,219.5,299.1z M275.4,333.4C275.2,330.1,272.3,334.7,275.4,333.4z M214.5,294
		C215.5,289.8,205.7,292.7,214.5,294z M172.9,267.6C180.5,266.8,160.6,262.4,172.9,267.6z M243.3,311.4
		C255.3,306.6,231.7,309.1,243.3,311.4z M206.7,286.5c13.7,1.8-16.4-9.4-3-1L206.7,286.5z M254.5,315.9c12.8-7.7,8.6,18,21.8,2.2
		c13-9.5-11.2,11.7,4.8,1.7c11.6-7.7,28.7,3.7,39.5,7.4c7.8-0.4,15.3,6.7,23.3,2.4c15.3-4.1-30-6.1-18.1-13.4
		c-14,4.1-24.4-4.9-31.3-13.9c-15.7-3.6-33.9-11.7-41.8-25.6c-3.2-5.2,4.6,0.7-2.8-7.8c-9.5-8.4-14.2-18-20.6-28.3
		c-7.6-4.1-8.5-16-9.3-0.4c0.1-9.8-9.2-16.5-11.4-13.7c0-9.5,9.9-4.7,2.9-11.7c-1.5-9.8-6.4-20.1-7.9-31.2
		c-2.3-5.3-0.3-16.8-7.9-4.7c-2.7,12.8-0.9-15.7,3.4-6.3c5.6-9.6-2-8.5-2.3-7.1c3.6-8.1,2.3-19.6-1-15.2c1.9-8.6,3.1-31.6-2.9-27.5
		c3.6-9,6.9-41.1-8.9-28.8c-6.4,0.1-17.4,2.3-22.6,4.9c16.4,9-1.6,3.3-8.3,1.8c-0.9,8.3-7.5,4.7-15.7,4.8c13.2,1.6-6.4,13.5-14,8.9
		c-9.8,4.7,8.5,16.4,0.2,20c1,5.4-15-2-13.8,10.6c-9.5-4-1.3,14.9,3.5,8.5c16.2,4.4,11.4,14.4,11.8,23.9c-2.6,5.5-13-13-2.3-12.1
		c-8.5-13.7-9.4-5-16.4,1.4c-1.6,0.5,17.9,9.1,5.7,13.3c10.8,1.7,11.1,11.1,13.3,17.1c6.5,6.8,5.2-7.5,12.9,0.7
		c-4.9-7.2-26-20.4-9-16.2c-0.1-7.3-3.1-13.2,2.1-13c5.2-9.3-5.4,23,6.2,11.2c3.2-1.4,4-9.3,9.8,0.8c8.4,8.3,3,14.3-8.8,6.7
		c2.1,7.2,15.9,9.8,13.3,21c2.7,9.9,6.6,6.3,9.9,5.7c2.6,9.6,4.1,2.5,4.2-2c12,2.6,9.2,9.7,12.9,14.6c8.3,3.7-11.8-25.3,2.4-8.7
		c14.9,13.5,5.6,19.1-7.8,16.9c8.5-0.7,11.2,11.5,21.8,11c9.7,4.6,16.2,22.3-0.4,14.9c-5.8-5.2-26.2-11.6-9.5-1.7
		c15.4,7.1,27.7,11.4,42.5,20.4c10.6,7.6,15.2,16.3,19.3,18c-8.9,4.3-27-3.4-13.6-5.8c-8.3-1.5-17.7-5.7-9.7,4.7
		c6.8,5.7,24.1,5.1,27.2,5.7c-2.6,5.8-7.1,6.2,0.1,6.7C243,312.7,253.7,313.4,254.5,315.9z M237.9,269.2c-4.9-5.1-6.2-14.8-0.9-6.4
		C239.8,263.9,245.8,278.6,237.9,269.2z M291.7,303.4C294.8,303.2,291.8,305.7,291.7,303.4z M230.2,256.6
		C230,248.8,232,262.6,230.2,256.6z M224.8,249.4C218.6,237.5,232.6,252.8,224.8,249.4z M160,204.7
		C163.7,203.7,161.8,210.9,160,204.7z M211.6,232.7C213.8,224.3,214.2,239.7,211.6,232.7z M175.2,207.3
		C172.6,202.7,180.5,211.7,175.2,207.3z M206.4,217.3c-5.9-13.1,4.2-7.2,1.3,2.1L206.4,217.3z M152.5,181.4
		c-2.6-4.3-6.9-16.9-5.5-20.8c1.3,6.3,13.3,27,5.9,8.6c-8.2-15.4,9.8,5,11.7,8.9c0.9,3.8-5.1-1-1,7.9
		C156.2,175.8,159.2,191.7,152.5,181.4z M135.9,169.9C136.6,159.9,139.7,176.8,135.9,169.9z M143.4,172.5
		C146.9,164.9,149.4,183,143.4,172.5z M125.3,158.6c-6.2-6.2-10.7-11.9,0.3-3.8c4.2,0.2-9.4-12.9,1-4.2
		C137.6,152.6,132.1,168.5,125.3,158.6z M134.8,158.3C138.4,154.7,136.7,161.8,134.8,158.3z M140.6,160.2
		C135.2,149.9,147.3,164.5,140.6,160.2z M129.1,149.1c-18-16.1,22.7,8.4,2.9,3L129.1,149.1z M180.7,179.1
		c-7.8-4.7-2.1-32.9,0.6-13.6c7.6-2.5-0.4,10,5.2,9.9C185.7,183.2,183.1,186,180.7,179.1z M199.8,190.4
		C200.6,181.9,201.4,196.2,199.8,190.4z M196.5,187.1C197.4,183.5,196.6,191.4,196.5,187.1z M132.6,143.8
		c-11.6-16,33.7,16.2,7.4,4.1C137.3,147.2,134,146.9,132.6,143.8z M169.4,163.3C168.3,149.9,171.8,165.6,169.4,163.3z M197.3,181.3
		C199.5,173.6,197.5,186.3,197.3,181.3z M134.4,137.7c6.9-1.5,28.5,12.1,8.7,3.9C140.8,139.2,136.1,140.3,134.4,137.7z M193.5,167.2
		c0.7-13.8,4.1-8.2,0,2L193.5,167.2z M139.5,132.9c2.8-4.1-7.5-18.6,1.5-5.2c3.9,3.1,11.2,5.1,4.7,6.4
		C155.8,143.1,143.2,136.6,139.5,132.9z M190.6,162.9C192.5,147.2,192.3,172.1,190.6,162.9z M133.6,118.5
		C135.8,117.5,134.8,121.3,133.6,118.5z M146.9,126.4C150.4,119.2,153.3,134.4,146.9,126.4z M184.5,147.3
		C184.5,144.5,185.2,151.3,184.5,147.3z M182.4,142.5C177.1,129.6,187.2,149.3,182.4,142.5z M179.2,134
		C178.3,128.7,182.1,140.7,179.2,134z M184.4,125.6c-3.6-6.3,4.5-27.8,5.4-14.5c-3.8,10.4-1.1,16.2,1.5,2.3
		C196.2,102.4,190.3,135,184.4,125.6z M189.7,93.6C191.3,91.7,190.1,95.9,189.7,93.6z M180.8,269.9C178.7,268,181,271,180.8,269.9z
		 M199.2,279.2c10.3,2.6,10.2-1.6,0.9-2.9c-5-4.6-20.7-9.6-6.6-0.6C194.4,278.1,197.4,278.1,199.2,279.2z M162.8,255
		c5.6,4.2,21.3,11.9,8,1.6c4.5-5.2-8.5-7.9-4.2-11.4c-11-6.7-8.7-6.1-1-5.9c-13.2-5.9,1.9-5.4,1.2-8.5c-5.1-1-25.2-9-13.4,0.7
		c-12.1-6.1-2.9,2.3-6.5,1.4c-12.3-3.4,11,9.4-2,6.2c7.1,5.6,19,14.4,3,5.9C145.9,248.1,159.5,252.7,162.8,255z M182.1,266.1
		C205.5,273.6,170.6,256.9,182.1,266.1z M280.7,325.9C281.1,321.2,277.5,329.8,280.7,325.9z M290.9,330.1c5.4-5.2,0.2,8.3,9-1.3
		c0.1-6.9-0.3-11-10-2.6C287.1,327.8,285.9,334.1,290.9,330.1z M129.9,229C128.3,222.5,118.3,222.5,129.9,229z M140.7,236.1
		C136.7,229.5,126.4,230.1,140.7,236.1z M202.3,273.3c6,5.3,27.6,3.9,7.3,0.7C206.6,269.5,190.5,270.6,202.3,273.3z M287,325.6
		C296.3,317.8,278.1,329.1,287,325.6z M306.3,338.8C306.3,336.3,302.3,339.9,306.3,338.8z M306.3,335.3
		C316.6,324.5,296.4,336,306.3,335.3z M103.3,206.7c-8.7-12.5-5.4-18.1-13.9-28.2c-1.6-7.8-14.5-25.4-6.6-6.7
		C89.9,182.7,92,199.6,103.3,206.7z M303.1,331.9C322,319.7,295.4,326.6,303.1,331.9z M317.5,337.5
		C326.9,329.4,311.5,335.8,317.5,337.5z M126.7,215.3C129.4,211.2,119.7,214.7,126.7,215.3z M314.5,333.7c9.1-5.9-2.1-5-1.7,0.5
		L314.5,333.7z M190.4,255.4C190.1,251.5,185.6,255.8,190.4,255.4z M198.1,259.9C195.6,254.9,194.3,260.6,198.1,259.9z M329.2,337.6
		c11.7-8.5-7.1-1.6-2.5,1.6L329.2,337.6z M324.7,335.5C334.2,327.5,314.6,339,324.7,335.5z M347.6,350.7
		C354,346.5,339.8,349.4,347.6,350.7z M132.6,212.4c8.6,1.9,34.3,21.1,19.1,1.3c-7.8-2.3-3.1-21.3-11-18c5.3,8.9,4.4,12.7-6.8,7.1
		c-14-6.9-7.9,3.4-5.1,6.2C125,209.9,133.7,212.3,132.6,212.4z M93.5,181.5c1.5-6.4-14.2-35-7.4-14.3
		C88.5,171.4,88.2,179.6,93.5,181.5z M165.3,225.7C160.8,222,165.1,225.2,165.3,225.7z M176.2,228.3
		C176.2,221.5,164.1,225.5,176.2,228.3z M270.5,287.8C268.7,283.2,263.4,287.7,270.5,287.8z M275.1,291.1
		C274.4,288.5,272.5,291.6,275.1,291.1z M312.5,314.6C316.1,312,308,314.3,312.5,314.6z M113,186.4C123.3,182.5,102,183.6,113,186.4
		z M262.2,280.5C262.1,273.8,255.7,282.1,262.2,280.5z M108.9,177C115.5,174.7,102.8,175.5,108.9,177z M128.1,186.3
		C128,184.1,126.1,187.1,128.1,186.3z M362.1,329.8c8.5-1.7,27.9,4.3,31-2.2c-10.3-0.3-35.7-7.3-36.9,1.7l2.3,0.4L362.1,329.8z
		 M134.2,187.8C134.4,181,128.9,187.5,134.2,187.8z M83.8,152.8C81.5,139.9,75.1,150.9,83.8,152.8z M95.8,155.8
		C96,151.7,84.8,152.1,95.8,155.8z M102.7,159.2C100.7,157.6,101.1,161.2,102.7,159.2z M145.9,187C148,185.1,141.1,185.6,145.9,187z
		 M98.1,151.6C96.9,141.9,84.2,150.1,98.1,151.6z M73.4,135.6C73.1,131.1,71,137.3,73.4,135.6z M77.1,132.8
		C76.5,127.5,73.9,133.5,77.1,132.8z M97.4,144.9c8.6-3.4-15.6-7-1.8-0.6L97.4,144.9z M368.6,312.5
		C374.1,307.5,361.7,310.9,368.6,312.5z M401.4,329.5C403.6,323,395.9,330.3,401.4,329.5z M99.4,134.3
		C100.3,128,92.6,135.5,99.4,134.3z M70.6,115c-1.5-8.9-1.3-24.5,13.5-19.2c-19.8,3.9,13.7,24.6,9.5,8.3c8.3,0.4,16.3-4.9,11.9,3.2
		c16.4-1.8,27.7-16,43.6-14c12.3-1.6,25.8-2.9,39.1-7.8c10.9-0.8,21.4-12.5,15.5-19.5c-14.9-1.3-30.5,0.6-47,3.9
		c-18.2,3.8-34.8,11-53.2,14.1c-18,2.4,3.6,6.6-1.5,7.6c-9.4,3.2,11.2,5.4-1.2,8.9C93,98.8,85,96.2,88.3,88.1
		C71.1,90.3,56,97.5,69.6,115L70.6,115z M112,93.9c4-14.8,21.6,12.2,6.6,2C116.8,94.5,113.9,93.4,112,93.9z M112.8,86.7
		C118.6,82.3,115.9,89.1,112.8,86.7z M120.2,86.8c0.5-6.8,16.9,3.6,2.7,2.5L120.2,86.8z M130.3,82.7C134,78.4,131.4,86.6,130.3,82.7
		z M132.9,81c6.1-7.4,34.8-4.7,13.8-0.7C141.1,76,136.8,82.8,132.9,81z M170.3,75.2C169.3,55.1,188.8,82.4,170.3,75.2z M180.9,75.2
		c3.9-10.2,15.1-4.1,1.8-2C183,74.2,182.3,78.4,180.9,75.2z M95.3,129.1C106.8,122,83,122.9,95.3,129.1z M103.8,131.5
		C107.9,127.1,95,129.7,103.8,131.5z M78.6,113.5C85.2,108.5,70.7,111.6,78.6,113.5z M420.8,327.6
		C421,321.7,415.7,330.3,420.8,327.6z M386,303.9C387,297.1,381.5,304.5,386,303.9z M430.3,329.9c9.3,0,28-2.9,7.9-2.9
		C435.1,327.5,419.8,327.4,430.3,329.9z M111.4,127.3c7.5-0.5,11.7-8.3-1.5-7.8c-20.4-2.1,18,7-2.6,4.4
		C104.5,125.7,111.2,127.8,111.4,127.3z M118,130.6C117.2,125.8,115.6,133.2,118,130.6z M125.8,109.8
		C129,105.7,121.3,108.7,125.8,109.8z M100.9,68.1c13.4-4.5,31.7-9.7,38,2.2c-6.4-7.7-2.6-15.3,3.5-4c8.6,11.4,12.9-5.2,7.3-9
		c6.4,7.9,13.6,11.6,4.3,0.5c10.2-12.2-20.3,1.6-27.2,1.5C123.3,60.7,92.2,67.1,100.9,68.1z M108.7,53.1c7.6-5.8,26.4,3.4,14.3-5.7
		C121.9,46.3,96.7,54.3,108.7,53.1z M136.5,54.2c8.9,0.2-3.8-12,6.8-6.5c-1.7-5.7-12.4-6.8-17.6-9C122.8,44,131.7,54.3,136.5,54.2z
		 M113.6,29C116.7,24.8,108.2,31.1,113.6,29z M124.9,31.7c14.4-1.9-3.7-6.2-2.9-0.2L124.9,31.7z M103.7,15.1
		c-10.1-13.2,19.1,2.2,8.8-11.6C103.8-3.4,95.5,11.3,103.7,15.1z M233.7,85.1c4.6-8.2-19.2-11.1-3.1-2.9
		C232,82.7,231.7,85.7,233.7,85.1z"/>
	<path d="M139.4,391.6c-1,4.1-1.7,10.9-1.9,20.4c0,1.9-0.8,2.8-2.5,2.8c-1.7,0-2.9-0.8-3.5-2.5c-1.8-4.4-3.5-7.5-5.2-9.3
		c-1.9-2.1-4.5-3.3-7.7-3.7c-3.4-0.5-12-0.8-25.8-0.8c-3.1,0-5.2,0.3-6.2,1c-0.6,0.4-0.9,1.3-0.9,2.7v41.1c0,1.4,0.9,2.1,2.6,2
		c5.4-0.1,13.2-0.4,23.4-1.1c2-0.2,3.3-0.9,4-2c0.7-1.1,1.4-3.8,2-8.2c0.4-2.4,1.8-3.4,4.3-2.8c2.1,0.4,2.9,1.4,2.6,2.8
		c-1.7,8.2-2.2,18.9-1.6,32.1c0.1,1.6-0.9,2.4-3,2.5c-1.7,0.2-2.8-0.7-3.2-2.7c-1.6-7.6-4.5-11.6-8.8-12.1
		c-4.3-0.5-11.2-0.8-20.8-0.8c-1.1,0-1.6,0.4-1.6,1.2v40.8c0,3,1.1,5.1,3.4,6.2c1.8,0.9,5.5,1.7,11.3,2.5c3,0.3,4.3,1.6,3.9,3.9
		c-0.4,2-3,2.8-8,2.4c-14.3-1.2-26.2-1.1-35.5,0.2c-2.6,0.4-3.9-0.7-3.9-3.2c0-1.6,1.3-2.5,3.9-2.7c5.9-0.7,8.9-5.9,8.9-15.6v-77.7
		c0-4-0.7-7.1-2.1-9.2c-1.4-2.2-4.1-4.1-7.9-5.9c-2.4-1.1-3.3-2.6-2.7-4.4c0.3-1.1,0.8-1.8,1.4-1.9c0.6-0.2,2.2-0.1,4.8,0.4
		c3.8,0.6,12.8,0.9,27,0.9c16.7,0,31.1-0.4,43.3-1.1c4.1-0.2,6.1,0.1,6.1,1C139.5,391.1,139.5,391.3,139.4,391.6z"/>
	<path d="M198.3,506.8c0,2.4-1.4,3.5-4.1,3.2c-8.3-0.8-18.7-0.7-31,0.4c-2.5,0.2-4,0.2-4.6-0.2c-0.6-0.4-0.9-1.4-0.9-3
		c0-1.4,1.6-2.7,4.9-3.7c3.3-1,4.9-4,4.9-8.9v-82.2c0-4.9-0.7-8.5-2.1-10.8c-1.4-2.3-3.9-4.1-7.5-5.4c-1.9-0.7-2.8-1.6-2.8-2.8
		c0-1.8,1.4-3.2,4.1-4.1c4.1-1.3,8.4-3.4,12.8-6.2c3.6-2.2,5.9-3.3,6.9-3.3c2.2,0,3.4,1.5,3.4,4.6c0-0.2-0.1,2.8-0.4,9.1
		c-0.2,6-0.2,11.9-0.2,17.7l0.4,81.1c0,3.7,0.9,6.4,2.7,8c1.8,1.7,4.9,2.8,9.3,3.3C196.9,504,198.3,505.1,198.3,506.8z"/>
	<path d="M280.4,501.5c0,1.3-2.3,3.2-6.9,5.8c-4.6,2.6-8.3,3.9-11.1,3.9c-2.4,0-4.4-1.1-6.3-3.4c-1.8-2.3-3.1-3.4-3.8-3.4
		c-0.5,0-3.4,1.2-8.6,3.7c-5.2,2.5-10.4,3.7-15.7,3.7c-5,0-9.1-1.5-12.4-4.4c-3.6-3.2-5.4-7.6-5.4-13.1c0-10.5,12-18,36-22.5
		c4.1-0.8,6.2-2.5,6.3-5l0.2-5.8c0.4-9.9-4-14.9-13.2-14.9c-2.6,0-5.1,2.3-7.4,7c-2.3,4.7-5.7,7.2-10,7.5c-5,0.5-7.4-1.6-7.4-6.3
		c0-2.9,3.7-6.3,11.1-10.2c7.7-4.1,15.2-6.1,22.3-6.1c12.3,0,18.4,5.8,18.2,17.5l-0.4,37.4c-0.1,3.9,1.6,5.9,5,5.9
		c0.7,0,1.9-0.2,3.8-0.5c1.9-0.3,3-0.5,3.3-0.5C279.5,497.9,280.4,499.1,280.4,501.5z M252.4,480.8c0.1-1.5-0.3-2.5-1-3
		c-0.8-0.5-1.9-0.6-3.6-0.3c-14.6,2.6-21.9,7.4-21.9,14.3c0,7,3.8,10.4,11.3,10.4c3,0,6.1-0.6,9.3-1.7c3.8-1.3,5.6-2.9,5.6-4.8
		L252.4,480.8z"/>
	<path d="M347.8,491c0,6.4-2.5,11.5-7.4,15.3c-4.9,3.8-11.7,5.7-20.2,5.7c-5.7,0-11.4-0.6-17.1-1.8c-4.9-1.1-7.7-2.1-8.5-3
		c-0.5-0.8-0.7-5-0.7-12.4c0-3.2,0.7-4.9,2.2-5c1.5-0.2,2.7,0.6,3.7,2.4c4.5,7.9,11.9,11.9,22,11.9c8.5,0,12.8-3,12.8-8.9
		c0-2.6-1-4.8-2.9-6.5c-2.1-2-6.2-4.3-12.3-7c-8.8-3.9-14.7-7.4-17.7-10.4c-3.2-3.1-4.8-7.4-4.8-12.7c0-6.5,2.5-11.6,7.5-15.2
		c4.7-3.5,10.9-5.3,18.7-5.3c4.9,0,9.4,0.4,13.4,1.2c4.4,0.8,6.6,1.8,6.8,2.9c0.5,3.4,1.5,8.3,3,14.7c0.2,0.8-0.7,1.4-2.5,1.9
		c-2,0.4-3.3,0.1-4-1c-4.8-7.8-10.8-11.7-18.2-11.7c-8.3,0-12.4,2.7-12.4,8c0,3,1.1,5.3,3.4,7.1c2,1.5,6.7,3.9,14.1,7.1
		c7.7,3.3,13,6.3,15.8,9C346,480.6,347.8,485.2,347.8,491z"/>
	<path d="M454.6,506.9c0,2.1-1.4,3.2-4.3,3.4c-4.2,0.1-9.8,0.4-16.6,0.9c-3.4,0.7-5.8,0.2-7.3-1.3c-9.6-10.3-17.7-21.1-24.3-32.3
		c-0.5-1-1.2-1.5-2.1-1.5c-1,0-2.8,0.9-5.4,2.7c-2.8,1.6-4.3,3.8-4.3,6.7c0,2.1,0.1,5,0.2,8.9c0.1,3.9,1.1,6.4,2.9,7.6
		c1.3,0.9,4.2,1.5,8.8,2c2.8,0.4,4.3,1.4,4.3,3.2c0,1.4-0.2,2.3-0.7,2.6c-0.5,0.3-1.7,0.4-3.6,0.2c-6.1-0.5-16.3-0.2-30.7,0.9
		c-3.6,0.3-5.6-0.2-5.9-1.4c-0.1-0.4-0.2-1-0.2-1.8c0-1.9,1.8-3.3,5.5-4.3c3.3-0.9,5-4.8,5-11.7v-79.3c0-5-0.5-8.4-1.5-10.3
		c-1.3-2.5-4.1-4.4-8.4-5.8c-2-0.7-3-1.6-3-2.8c0-1.8,1.4-3.1,4.3-4.1c4.5-1.5,8.9-3.6,13-6.3c3.3-2.2,5.4-3.3,6.2-3.3
		c2.5,0,3.7,1.6,3.7,4.7c0-0.4,0,2.6-0.1,9c-0.1,4.4-0.1,10.4-0.1,17.8l0.2,56.8c0,1.6,0.4,2.4,1.3,2.4c0.9,0,2.3-0.8,4.2-2.4
		c5-3.9,11.2-9.1,18.5-15.4c1.5-1.5,2.2-2.7,2.2-3.6c0-1.6-2.5-2.8-7.3-3.4c-2.1-0.2-3.1-1.4-3-3.5c0.2-2.1,1.2-3,3.2-2.7
		c4.4,0.6,10.7,0.9,19.1,1c5.8,0.1,11.6,0.1,17.3,0.1c1.9,0.1,2.8,1.2,2.8,3.4c0,2.1-1.5,3.2-4.4,3.4c-4.7,0.2-9.1,1.2-13.2,3.2
		c-5.8,2.6-11.9,7.2-18.4,13.7c-0.5,0.4-0.7,0.8-0.7,1.4c0,0.8,1,2.9,3.1,6.1c7.6,11.5,14.7,20.2,21.4,26.1
		c4.3,3.7,8.3,5.5,12.1,5.5c2.8,0,4.5,0.2,5.2,0.6C454.3,504.2,454.6,505.2,454.6,506.9z"/>
</g>
</svg>
