<?xml version="1.0" encoding="utf-8"?>
<!-- Generator: Adobe Illustrator 19.0.0, SVG Export Plug-In . SVG Version: 6.00 Build 0)  -->
<svg version="1.1" id="Layer_1" xmlns="http://www.w3.org/2000/svg" xmlns:xlink="http://www.w3.org/1999/xlink" x="0px" y="0px"
	 viewBox="0 0 500 500" style="enable-background:new 0 0 500 500;" xml:space="preserve">
<style type="text/css">
	.st0{fill:#00678F;}
	.st1{fill:#E48D1A;}
	.st2{fill-rule:evenodd;clip-rule:evenodd;fill:#00678F;}
	.st3{fill-rule:evenodd;clip-rule:evenodd;fill:#E48D1A;}
	.st4{fill:#989A9D;}
</style>
<g id="XMLID_1_">
	<path id="XMLID_3_" class="st0" d="M67.5,327.4h12V280l18.6,41.4c2.2,5,5.2,6.8,11.1,6.8c5.9,0,8.8-1.8,11-6.8l18.6-41.4v47.5h12
		V280c0-4.6-1.9-6.9-5.7-8c-9.1-2.9-15.3-0.4-18,5.8l-18.3,40.9l-17.7-40.9c-2.7-6.2-8.9-8.6-18-5.8c-3.8,1.2-5.7,3.4-5.7,8V327.4z"
		/>
	<path id="XMLID_4_" class="st0" d="M160.9,288.8h12V315c-0.1,1.4,0.5,4.8,7,4.9c3.4,0.1,25.9,0,26.1,0v-31.1h12
		c0.1,0,0,42.5,0,42.7c0.1,10.5-13,12.8-19,12.9h-38v-8.1c0.1,0,37.9,0,38,0c7.7-0.8,6.8-4.7,6.8-6V327h-25.6
		c-11.9-0.1-19.5-5.3-19.6-11.3C160.9,315.2,161.1,289.1,160.9,288.8z"/>
	<path id="XMLID_5_" class="st1" d="M227.4,327.4H262c4,0,8-0.8,11.1-2.3c5.2-2.4,7.7-5.6,7.7-9.9v-8.8c0-3.5-2.9-6.7-8.6-8.9
		c-3-1.2-6.7-1.8-10.3-1.8h-14.6c-4.9,0-7.2-1.5-7.7-4.7c-0.1-0.4-0.1-0.7-0.1-1.1v-5.5c0-0.3,0-0.6,0.1-1c0.6-2.5,1.9-3.2,6.1-3.5
		c0.3,0,0.8-0.1,1.2-0.1h34.3v-8h-33.8c-4.9,0-7.4,0.3-9.7,1c-7.2,2.2-10.3,5.8-10.3,11.9v7c0,5.4,6.1,10,16.4,11.1
		c1.2,0.1,2.3,0.2,3.5,0.2h12.5c0.5,0,0.9,0,1.3,0.1c3.8,0.3,5.4,1,6.6,2.4c0.7,0.7,0.9,1.4,0.9,2.2v7c0,0.8-0.6,1.9-1.7,2.9
		c-1,0.9-2.8,1.5-5.1,1.7c-0.5,0-0.8,0.1-1.3,0.1h-33.2V327.4z"/>
	<path id="XMLID_6_" class="st1" d="M355.8,313.5c0,8.2,6.1,12.9,18.5,13.8c1.2,0.1,2.3,0.2,3.5,0.2h31.3v-8h-31.6
		c-7.1,0-9.7-1.8-9.7-6v-41.5h-12V313.5z"/>
	<path id="XMLID_9_" class="st1" d="M288.5,313.9v-28.6c0-7.3,5.1-11.7,15.2-13.1c1-0.2,2.2-0.2,3.2-0.2h22.8c1.2,0,2.2,0.1,3.4,0.2
		c10.1,1.4,15.2,5.8,15.2,13.1v28.6c0,5.9-2.2,9-7.2,11.1l11.8,10.7h-14l-9.6-8.7l-9.6,0.6h-12.9c-2.2,0-4.5-0.3-7.1-1
		C292.2,324.6,288.5,320.6,288.5,313.9z M301.5,313.2c0,0.4,0.1,0.8,0.2,1.2c0.7,3.3,3.8,5.2,8.6,5.2h10.9l-10-9.1h14l8.8,7.9
		c1.6-0.9,2.7-2.2,3-3.9c0.1-0.4,0.1-0.8,0.1-1.2V286c0-0.3,0-0.7-0.1-1.1c-0.7-3.1-3.8-4.9-8.5-4.9h-18.2c-5.3,0-8.8,2.3-8.8,5.9
		V313.2z"/>
	<path id="XMLID_10_" class="st0" d="M419.7,258.6c-7.4-0.2-13,0.5-17.9,2.5c-1.4,0.6-3.6,0.6-3.8,2.3c0.8,0.8,0.9,2,1.5,2.9
		c1.2,1.9,3.1,4.4,4.8,5.7c1.9,1.4,3.9,3,5.9,4.2c3.6,2.2,7.7,3.5,11.1,5.7c2.1,1.3,4.1,2.9,6.1,4.4c1,0.7,1.7,1.9,2.9,2.3v-0.2
		c-0.7-0.9-0.9-2-1.5-2.9c-0.9-0.9-1.8-1.8-2.7-2.7c-2.7-3.5-6.1-6.7-9.7-9.2c-2.9-2.1-9.3-4.9-10.5-8.2l-0.2-0.2
		c2-0.2,4.4-1,6.3-1.5c3.2-0.8,6-0.6,9.2-1.5c1.5-0.4,2.9-0.8,4.4-1.3c0-0.3,0-0.6,0-0.8c-1.6-1.7-2.8-3.9-4.6-5.5
		c-4.7-4-9.8-8-15.1-11.3c-2.9-1.9-6.6-3.1-9.7-4.6c-1-0.5-2.9-0.8-3.6-1.7c-1.6-2.1-2.5-4.7-3.8-7.1c-2.6-5.1-5.2-10.6-7.6-16
		c-1.6-3.6-2.6-7.2-4.6-10.5c-9.5-15.7-19.8-25.2-35.7-34.5c-3.4-2-7.5-2.8-11.8-3.8c-2.3-0.1-4.6-0.3-6.9-0.4
		c-1.4-0.6-2.9-2.3-4.2-3.2c-5.3-3.3-18.8-10.6-22.7-1.1c-2.5,6,3.7,11.9,5.9,14.9c1.5,2.1,3.5,4.5,4.6,6.9c0.7,1.6,0.9,3.2,1.5,4.8
		c1.5,4.1,2.9,8.6,4.8,12.4c1,1.9,2.1,4,3.4,5.7c0.8,1.1,2.1,1.5,2.3,3.2c-1.3,1.8-1.4,4.6-2.1,6.9c-3.3,10.4-2,23.2,2.7,30.9
		c1.5,2.4,4.9,7.4,9.7,5.5c4.2-1.7,3.2-6.9,4.4-11.6c0.3-1,0.1-1.8,0.6-2.5v0.2c1.3,2.5,2.5,5,3.8,7.6c2.8,4.5,7.8,9.2,12,12.4
		c2.2,1.6,3.9,4.5,6.7,5.5v-0.2h-0.2c-0.5-0.9-1.4-1.2-2.1-1.9c-1.6-1.6-3.5-3.6-4.8-5.5c-3.8-5.2-7.2-10.9-10.3-16.8
		c-1.5-2.8-2.8-5.9-4-8.8c-0.5-1.1-0.5-2.8-1.5-3.4c-1.4,2.1-3.4,3.8-4.4,6.3c-1.7,4-1.9,8.8-2.5,13.9c-0.4,0.1-0.2,0-0.4,0.2
		c-2.9-0.7-4-3.7-5-6.3c-2.8-6.5-3.3-17.1-0.8-24.6c0.6-1.9,3.5-8.1,2.3-9.9c-0.5-1.8-2.4-2.8-3.4-4.2c-1.2-1.7-2.5-3.9-3.4-5.9
		c-2.3-5.1-3.3-10.8-5.7-16c-1.1-2.5-3.1-5-4.6-7.1c-1.7-2.4-3.7-4.2-5-7.1c-0.5-1-1.1-2.7-0.4-3.8c0.2-0.7,0.5-1,1.3-1.3
		c1.2-0.9,4.6,0.3,5.9,0.8c3.4,1.4,6.2,2.7,9,4.6c1.4,0.9,2.8,2.7,4.4,3.2c0.6,0,1.3,0,1.9,0c3,0.7,6.3,0.2,9,1.1
		c4.9,1.5,9.3,3.8,13.2,6.3c12.1,7.6,22,18.5,28.8,31.5c1.1,2.1,1.6,4.1,2.5,6.3c1.9,4.5,4.4,9.1,6.3,13.5c1.9,4.4,3.8,8.8,6.5,12.4
		c1.4,1.9,6.9,2.9,9.5,4c1.8,0.7,4.6,1.5,6.3,2.5c3.2,1.9,6.3,4.2,9.2,6.3C414.9,254.4,419.5,256.7,419.7,258.6z"/>
	<path id="XMLID_11_" class="st2" d="M325.8,178.6c-1.5,0-2.6,0.2-3.8,0.4v0.2h0.2c0.7,1.5,2,2.5,2.9,3.8c0.7,1.5,1.4,2.9,2.1,4.4
		l0.2-0.2c1.3-0.9,1.9-2.4,1.9-4.6c-0.5-0.5-0.6-1.2-1.1-1.9C327.7,179.8,326.5,179.3,325.8,178.6z"/>
	<path id="XMLID_16_" class="st3" d="M414.8,319.2c0,5.3,4.2,8.9,8.9,8.9c4.7,0,8.9-3.6,8.9-8.9c0-5.3-4.2-8.9-8.9-8.9
		C419,310.3,414.8,313.9,414.8,319.2z M430.5,319.2c0,4-3.1,7-6.9,7c-3.9,0-6.9-3-6.9-7c0-4,3-7,6.9-7
		C427.4,312.2,430.5,315.2,430.5,319.2z M426,324.3h2l-2.9-4.4c1.6-0.2,2.7-0.9,2.7-2.8c0-2.1-1.3-2.9-3.8-2.9h-3.9v10.1h1.7v-4.4
		h1.6L426,324.3z M421.8,318.5v-2.9h2c1,0,2.2,0.2,2.2,1.4c0,1.4-1.1,1.5-2.4,1.5H421.8z"/>
	<path id="XMLID_19_" class="st4" d="M68,240c1.2-0.2,2.7-0.4,4.6-0.4c2.4,0,4.1,0.6,5.2,1.5c1,0.9,1.6,2.2,1.6,3.9
		c0,1.7-0.5,3-1.4,4c-1.3,1.3-3.3,2-5.7,2c-0.7,0-1.4,0-1.9-0.2v7.4H68V240z M70.4,248.9c0.5,0.1,1.2,0.2,2,0.2c2.9,0,4.7-1.4,4.7-4
		c0-2.4-1.7-3.6-4.4-3.6c-1,0-1.8,0.1-2.3,0.2V248.9z"/>
	<path id="XMLID_22_" class="st4" d="M94.7,251.5c0,4.9-3.4,7.1-6.6,7.1c-3.6,0-6.4-2.6-6.4-6.9c0-4.5,2.9-7.1,6.6-7.1
		C92.1,244.7,94.7,247.4,94.7,251.5z M84.1,251.7c0,2.9,1.7,5.1,4,5.1c2.3,0,4-2.2,4-5.2c0-2.3-1.1-5.1-4-5.1
		C85.3,246.5,84.1,249.1,84.1,251.7z"/>
	<path id="XMLID_23_" class="st4" d="M98.7,245l1.8,6.8c0.4,1.5,0.7,2.9,1,4.2h0.1c0.3-1.3,0.7-2.8,1.2-4.2l2.2-6.8h2l2.1,6.7
		c0.5,1.6,0.9,3,1.2,4.3h0.1c0.2-1.3,0.6-2.8,1-4.3l1.9-6.7h2.4l-4.3,13.3H109l-2-6.4c-0.5-1.5-0.9-2.8-1.2-4.4h-0.1
		c-0.3,1.6-0.7,3-1.2,4.4l-2.1,6.3h-2.2l-4-13.3H98.7z"/>
	<path id="XMLID_26_" class="st4" d="M119.3,252.1c0.1,3.3,2.1,4.6,4.6,4.6c1.7,0,2.8-0.3,3.7-0.7l0.4,1.7c-0.9,0.4-2.3,0.8-4.4,0.8
		c-4.1,0-6.5-2.7-6.5-6.7c0-4,2.4-7.2,6.2-7.2c4.3,0,5.5,3.8,5.5,6.3c0,0.5-0.1,0.9-0.1,1.1H119.3z M126.4,250.3
		c0-1.5-0.6-3.9-3.4-3.9c-2.4,0-3.5,2.3-3.7,3.9H126.4z"/>
	<path id="XMLID_27_" class="st4" d="M131.7,249.1c0-1.6,0-2.9-0.1-4.2h2.1l0.1,2.6h0.1c0.6-1.8,2.1-2.9,3.7-2.9
		c0.3,0,0.5,0,0.7,0.1v2.3c-0.2-0.1-0.5-0.1-0.8-0.1c-1.7,0-2.9,1.3-3.2,3.1c-0.1,0.3-0.1,0.7-0.1,1.1v7.1h-2.4V249.1z"/>
	<path id="XMLID_30_" class="st4" d="M142.1,252.1c0.1,3.3,2.1,4.6,4.6,4.6c1.7,0,2.8-0.3,3.7-0.7l0.4,1.7c-0.9,0.4-2.3,0.8-4.4,0.8
		c-4.1,0-6.5-2.7-6.5-6.7c0-4,2.4-7.2,6.2-7.2c4.3,0,5.5,3.8,5.5,6.3c0,0.5-0.1,0.9-0.1,1.1H142.1z M149.2,250.3
		c0-1.5-0.6-3.9-3.4-3.9c-2.4,0-3.5,2.3-3.7,3.9H149.2z"/>
	<path id="XMLID_33_" class="st4" d="M166,238.7v16.1c0,1.2,0,2.5,0.1,3.4H164l-0.1-2.3h-0.1c-0.7,1.5-2.4,2.6-4.5,2.6
		c-3.2,0-5.7-2.7-5.7-6.8c0-4.4,2.7-7.2,6-7.2c2,0,3.4,1,4,2h0.1v-8H166z M163.6,250.4c0-0.3,0-0.7-0.1-1c-0.4-1.5-1.7-2.8-3.5-2.8
		c-2.5,0-4,2.2-4,5.1c0,2.7,1.3,4.9,3.9,4.9c1.6,0,3.1-1.1,3.5-2.9c0.1-0.3,0.1-0.7,0.1-1V250.4z"/>
	<path id="XMLID_36_" class="st4" d="M175.8,258.3c0.1-0.9,0.1-2.3,0.1-3.4v-16.1h2.4v8.4h0.1c0.9-1.5,2.4-2.4,4.5-2.4
		c3.3,0,5.6,2.8,5.6,6.8c0,4.8-3,7.1-6,7.1c-1.9,0-3.5-0.7-4.5-2.5H178l-0.1,2.2H175.8z M178.3,252.9c0,0.3,0.1,0.6,0.1,0.9
		c0.5,1.7,1.9,2.8,3.6,2.8c2.5,0,4-2.1,4-5.1c0-2.7-1.4-5-4-5c-1.7,0-3.2,1.1-3.7,3c-0.1,0.3-0.1,0.6-0.1,1V252.9z"/>
	<path id="XMLID_37_" class="st4" d="M192.4,245l2.9,7.9c0.3,0.9,0.6,1.9,0.9,2.7h0.1c0.2-0.8,0.5-1.8,0.9-2.8l2.6-7.8h2.6l-3.6,9.5
		c-1.7,4.6-2.9,6.9-4.6,8.3c-1.2,1-2.4,1.5-3,1.6l-0.6-2c0.6-0.2,1.4-0.6,2.1-1.2c0.7-0.5,1.5-1.5,2-2.7c0.1-0.2,0.2-0.4,0.2-0.6
		c0-0.1-0.1-0.3-0.2-0.6l-4.9-12.3H192.4z"/>
</g>
</svg>
