<?xml version="1.0" encoding="utf-8"?>
<!-- Generator: Adobe Illustrator 19.0.0, SVG Export Plug-In . SVG Version: 6.00 Build 0)  -->
<svg version="1.1" id="Layer_1" xmlns="http://www.w3.org/2000/svg" xmlns:xlink="http://www.w3.org/1999/xlink" x="0px" y="0px"
	 viewBox="0 0 500 500" style="enable-background:new 0 0 500 500;" xml:space="preserve">
<style type="text/css">
	.st0{fill:#73BA25;}
	.st1{fill:#FFFFFF;}
</style>
<g id="XMLID_1_">
	<path id="XMLID_3_" class="st0" d="M429.1,347.4v1.2c0,2.7-2,4.6-4.9,4.6h-36.7c-2.7,0-4.7-2-4.7-4.6v-46c0-2.7,2.1-4.6,4.7-4.6
		l0,0h35.1c2.8,0,4.9,1.9,4.9,4.6v1.2c0,2.7-2.1,4.6-4.9,4.6h-28.5v12h22c2.8,0,4.9,2,4.9,4.7v1.2c0,2.7-2.1,4.6-4.9,4.6h-22v11.7
		h30C427.1,342.8,429.1,344.8,429.1,347.4z"/>
	<path id="XMLID_6_" class="st1" d="M395.8,155.6c11.6,0.4,20.7,10.2,20.3,21.8c-0.2,5.6-2.6,10.8-6.7,14.6
		c-4.1,3.8-9.4,5.8-15.1,5.6c-11.6-0.4-20.7-10.2-20.3-21.8c0.2-5.6,2.5-10.8,6.7-14.6C384.8,157.4,390.2,155.4,395.8,155.6z
		 M410.6,176.9c0.3-8.2-6.2-15.2-14.4-15.5c-4-0.2-7.8,1.3-10.7,4c-2.9,2.7-4.6,6.4-4.7,10.4c-0.3,8.2,6.2,15.2,14.4,15.5
		c4,0.1,7.8-1.3,10.7-4C408.8,184.6,410.5,180.9,410.6,176.9z"/>
	<path id="XMLID_9_" class="st0" d="M396.1,161.4c8.2,0.3,14.7,7.2,14.4,15.5c-0.1,4-1.8,7.7-4.7,10.4c-2.9,2.7-6.7,4.1-10.7,4
		c-8.2-0.3-14.7-7.2-14.4-15.5c0.1-4,1.8-7.7,4.7-10.4C388.4,162.7,392.2,161.3,396.1,161.4z M405.2,173.4c0-2.5-3-4.4-6.6-4.4
		s-6.6,2-6.6,4.4c0,2.4,3,4.4,6.6,4.4C402.3,177.8,405.2,175.8,405.2,173.4z"/>
	<path id="XMLID_10_" class="st1" d="M398.6,168.9c3.7,0,6.6,2,6.6,4.4c0,2.4-3,4.4-6.6,4.4s-6.6-2-6.6-4.4
		C392,170.9,394.9,168.9,398.6,168.9z"/>
	<path id="XMLID_11_" class="st0" d="M373.2,332v7.4c0,8.4-5,13.9-12.9,13.9h-30c-2.8,0-4.9-2-4.9-4.6v-1.2c0-2.7,2-4.6,4.9-4.6
		h28.4c3.1,0,3.2-4.2,3.2-4.7v-4.4c0-1.4-0.6-3.2-3.2-3.2H338c-5.9,0-12.3-4.9-12.3-12.7V311c0-5.3,5-13,14.1-13v0.1h24.5
		c2.8,0,5,2,5,4.6v1.2c0,2.7-2.1,4.6-4.9,4.6h-22.7c-3,0-4.7,1.5-4.7,4v4.1c0,1.7,1.4,3.9,4.5,3.9h20.5
		C367.6,320.6,373.2,324.1,373.2,332z"/>
	<path id="XMLID_12_" class="st0" d="M311,298c2.7,0,4.9,2.1,4.9,4.9v36.2c0,8.4-6.6,14.5-15.8,14.5h-16.9
		c-9.1,0-15.8-6.1-15.8-14.5v-36.2c0-2.7,2.2-4.9,4.9-4.9h1.5c2.7,0,4.9,2.2,4.9,4.9v34.9c0,2.8,2.2,5,5,5h15.8c2.8,0,5-2.2,5-5
		v-34.9c0-2.7,2.2-4.9,4.9-4.9h0L311,298L311,298z"/>
	<path id="XMLID_13_" class="st0" d="M257.7,332v7.4c0,8.4-5.1,13.9-12.9,13.9h-30c-2.8,0-4.9-2-4.9-4.6v-1.2c0-2.7,2.1-4.6,4.9-4.6
		h28.4c3.1,0,3.2-4.2,3.2-4.7v-4.4c0-1.4-0.5-3.2-3.2-3.2h-20.8c-6,0-12.3-4.9-12.3-12.7V311c0-5.3,5-13,14.1-13l0,0.1h24.5
		c2.8,0,5,2,5,4.6v1.2c0,2.7-2.1,4.6-4.9,4.6h-22.7c-3,0-4.7,1.5-4.7,4v4.1c0,1.7,1.4,3.9,4.5,3.9h20.5
		C252,320.6,257.7,324.1,257.7,332z"/>
	<path id="XMLID_16_" class="st0" d="M429.3,205.7l1.5-0.3c0.4,0.3,0.4,1,0.2,1.6c-0.3,1.4-1,3.9-1.4,5.2l-0.4,1
		c-0.5,1.5-1.1,2.9-2.1,3.7c-2.9,2.6-7.4,4.7-14.6,7.8c-11.1,4.9-29.1,7.9-45.8,7.8c-6-0.1-11.8-0.8-16.9-1.4
		c-15.6-1.8-26.8-3-29.1,11.1c-3,17.7,13.7,39.3,13.9,39.5l0,0.6l-0.5,0.1c0,0-26.6-12.2-27.2-12.6l-0.8-0.6l-0.7-0.6
		c-2-1.9-6-6.3-14.2-15.7c-15.8-18.3-34.4-20.7-48.7-17.2c-3.5,0.8-7.9,3.4-10.8,6.2c-7.5,7.4-6.6,22.2-6.2,27.6
		c0.5,6.1,0.8,6.6,0.9,7.1l-0.1,0.6l-0.5,0.1l-0.3-0.2l-21.8-10.7l-0.8-3.6c-0.6-2.4-1.2-5-2.4-8.2c-7.8-20.5-25.3-36-44.6-39.3
		c-13-2.2-36.8-2.5-49.4,21.3c-5.3,9.9-4.9,22.8,0.8,33.7c5.9,11.1,16.4,18.3,28.8,19.7c12.3,1.3,21.6-1.5,26.8-8.2
		c5.2-6.8,6.2-16.1,2.5-23.6c-4-8.1-10-12.4-18.4-13.1c-6.4-0.6-11.1,2.1-12.8,4.8c-0.5,0.8-1.4,2.4-1.4,4.6v0.1
		c0,6.1,5.6,7.7,6.7,7.8c0.3,0,2,0,4.2-0.6l1.1-0.3l0.7-0.3l0.5-0.1c4-0.7,7.9,1.6,9.1,5.6c0.2,0.7,0.3,1.4,0.3,2.2
		c0,2.6-1.3,5-3.5,6.5l0.1,0l-0.2,0.1l-0.4,0.2c-1.2,0.7-2.2,1.1-3.4,1.5c-3.2,1-6,1.5-8.8,1.5c-9.6,0-23-8.3-23.2-23.8
		c-0.1-8.8,4.3-16.8,12.1-21.9c8.9-5.9,24.3-7.9,38.7,0.9c17.6,10.8,22.2,31.9,17.6,46.3c-6.7,20.8-25.5,32-50.3,29.8
		c-17.6-1.6-33.9-10.8-43.6-24.8c-4.3-6.2-7.5-13.1-9.2-19.9c-4-15.7,0-32.4,3-39.8c9.5-23.5,27.7-43.8,54-60.2l1.7-1
		c56-34.4,95.6-33,124.6-32c34.2,1.2,70.7,13,75.7,14.7c0-1.1,0.2-11.3,0.2-11.3l0.2-0.3l0.4-0.1c2.3,0.3,51.4,7.6,72.1,19.7
		c2.6,1.5,3.8,3.1,5.4,4.7c5.7,5.9,13.3,30.5,14.1,35.6l-0.3,0.5c-0.3,0.1-1,0.6-2,1.3c-4.8,3.4-16.1,11.3-30.6,10
		c-13-1.1-30-8.6-50.5-22.1c0.9,2.1,5.2,12.2,5.9,13.9l0.3,0.3c3,1.5,31.4,16,45.6,15.8C412.3,214.2,424.4,208.7,429.3,205.7z
		 M416.1,177.3c0.4-11.6-8.7-21.3-20.3-21.8c-5.6-0.2-11,1.8-15.1,5.6c-4.1,3.8-6.5,9-6.7,14.6c-0.4,11.6,8.7,21.3,20.3,21.8
		c5.6,0.2,11-1.8,15.1-5.6C413.5,188.1,415.9,183,416.1,177.3z"/>
	<path id="XMLID_17_" class="st0" d="M182.6,321.8c2-0.9,4.4-2.1,7.6-2.1h1c5.6,0,9.3,3.4,9.3,8.5v22.6c0,1.4-1.1,2.5-2.5,2.5h-1
		c-1.4,0-2.5-1.1-2.5-2.5V329c0-2.1-1.7-3.7-3.7-3.7h-8.2c-2.1,0-3.7,1.7-3.7,3.7v21.8c0,1.4-1.1,2.5-2.5,2.5h-1
		c-1.4,0-2.5-1.1-2.5-2.5V322c0-1.2,0.8-2.1,2-2.1h0.9c0.9,0,1.6,0.4,1.9,1.2l0.7,1.2c0.3,0.5,0.4,0.5,0.8,0.5
		C180.3,322.8,181.3,322.3,182.6,321.8z"/>
	<path id="XMLID_20_" class="st0" d="M166.3,327.9v6.7c0,2.9-1.7,4.5-4.4,4.5h-17.1v5c0,2.5,1.4,3.8,4.1,3.8h9.5
		c1.4,0,2.5,1,2.5,2.3v0.8c0,1.4-1,2.3-2.5,2.3h-11.6c-4.3,0-7.9-3.8-7.9-8.3v-17.2c0-4.4,3.7-8,8.3-8l0,0H158
		C162.6,319.9,166.3,323.5,166.3,327.9z M160.4,334v-5.4c0-1.9-1.4-3.3-3.3-3.3h-9c-1.9,0-3.3,1.5-3.3,3.3v5.4H160.4z"/>
	<path id="XMLID_21_" class="st0" d="M109,344.2c0,1.4,0.8,2.6,1.9,3.3l-1.4,3.1c-0.3,0-0.5,0.5-0.5,0.9V366c0,1.3-1.1,2.5-2.5,2.5
		h-1c-1.4,0-2.5-1.1-2.5-2.5v-44c0-1.2,0.9-2.1,1.9-2.1h1.1c0.9,0,1.7,0.7,1.9,1.1l0.7,1.4c0.2,0.3,0.5,0.4,0.8,0.4l1.4,3
		c-1.2,0.6-1.9,1.8-1.9,3.3V344.2z"/>
	<path id="XMLID_22_" class="st0" d="M121.3,319.7c5.7,0,9.3,3.4,9.3,8.5V345c0,5.3-3.6,8.5-9.3,8.5h-1c-3.2,0-5.7-1.1-7.6-2
		c-1.2-0.6-2.2-1-3-1l1.4-3.1c0.5,0.3,1.1,0.5,1.8,0.5h8.2c2.1,0,3.7-1.7,3.7-3.7v-15.1c0-2.1-1.6-3.7-3.7-3.7h-8.2
		c-0.6,0-1.3,0.2-1.8,0.4l-1.4-3c0.8,0,1.8-0.5,3-1.1c2-0.9,4.4-2.1,7.6-2.1v0H121.3z"/>
	<path id="XMLID_25_" class="st0" d="M94.8,327.8v17.4c0,4.5-3.6,8.1-8.1,8.1H75.5c-4.4,0-8-3.6-8-8.1v-17.4c0-4.4,3.7-8,8.3-8h10.7
		C91.1,319.9,94.8,323.5,94.8,327.8z M88.9,344.5v-15.8c0-1.8-1.6-3.4-3.4-3.4h-8.7c-1.9,0-3.4,1.5-3.4,3.4v15.8
		c0,1.9,1.4,3.4,3.3,3.4h8.8C87.4,347.9,88.9,346.4,88.9,344.5z"/>
</g>
</svg>
