<?xml version="1.0" encoding="utf-8"?>
<!-- Generator: Adobe Illustrator 19.0.0, SVG Export Plug-In . SVG Version: 6.00 Build 0)  -->
<svg version="1.1" id="Layer_1" xmlns="http://www.w3.org/2000/svg" xmlns:xlink="http://www.w3.org/1999/xlink" x="0px" y="0px"
	 viewBox="0 0 500 500" style="enable-background:new 0 0 500 500;" xml:space="preserve">
<style type="text/css">
	.st0{clip-path:url(#XMLID_42_);}
	.st1{clip-path:url(#XMLID_43_);fill:#231F20;}
	.st2{clip-path:url(#XMLID_43_);fill:url(#XMLID_47_);}
	.st3{clip-path:url(#XMLID_43_);fill:#4A659B;}
	.st4{clip-path:url(#XMLID_43_);fill:url(#XMLID_48_);}
	.st5{clip-path:url(#XMLID_49_);fill:#617CBE;}
	.st6{clip-path:url(#XMLID_49_);fill:#FFFFFF;}
	.st7{clip-path:url(#XMLID_49_);fill:#08090D;}
</style>
<g id="g3068">
</g>
<g id="XMLID_1_">
	<g id="XMLID_5_">
		<defs>
			<path id="XMLID_4_" d="M250,346c100.8,0,182.5-43,182.5-96s-81.7-96-182.5-96S67.5,197,67.5,250S149.2,346,250,346"/>
		</defs>
		<clipPath id="XMLID_42_">
			<use xlink:href="#XMLID_4_"  style="overflow:visible;"/>
		</clipPath>
		<g id="XMLID_8_" class="st0">
			<defs>
				<rect id="XMLID_7_" x="67.2" y="154.6" width="365.7" height="191.8"/>
			</defs>
			<clipPath id="XMLID_43_">
				<use xlink:href="#XMLID_7_"  style="overflow:visible;"/>
			</clipPath>
			<path id="XMLID_9_" class="st1" d="M250,346c100.8,0,182.5-43,182.5-96s-81.7-96-182.5-96S67.5,197,67.5,250S149.2,346,250,346"
				/>
			<path id="XMLID_10_" class="st1" d="M375.7,321.7c-74,109.7-223,138.7-332.7,64.7s-138.7-223-64.7-332.7
				C52.3-56,201.4-84.9,311.1-11C420.7,63,449.7,212,375.7,321.7"/>
			
				<radialGradient id="XMLID_47_" cx="-0.4824" cy="-5.604706e-002" r="1.2167" gradientTransform="matrix(163.3026 110.1345 -110.1345 163.3026 249.6766 250.03)" gradientUnits="userSpaceOnUse">
				<stop  offset="0" style="stop-color:#4A659B"/>
				<stop  offset="1" style="stop-color:#231F20"/>
			</radialGradient>
			<rect id="XMLID_11_" x="67.2" y="154.6" class="st2" width="365.7" height="191.8"/>
			<path id="XMLID_12_" class="st3" d="M276.4,254.8c-37,54.8-111.5,69.3-166.3,32.3c-54.8-37-69.3-111.5-32.3-166.3
				c37-54.8,111.5-69.3,166.3-32.3C298.9,125.4,313.4,199.9,276.4,254.8"/>
			
				<radialGradient id="XMLID_48_" cx="-0.9675" cy="-0.1051" r="1.2167" gradientTransform="matrix(81.6513 55.0672 -55.0672 81.6513 250.2821 249.6099)" gradientUnits="userSpaceOnUse">
				<stop  offset="0" style="stop-color:#FFFFFF"/>
				<stop  offset="1" style="stop-color:#4A659B"/>
			</radialGradient>
			<rect id="XMLID_13_" x="67.2" y="154.6" class="st4" width="365.7" height="191.8"/>
		</g>
		<g id="XMLID_15_" class="st0">
			<defs>
				<rect id="XMLID_14_" x="67.2" y="154.6" width="365.7" height="191.8"/>
			</defs>
			<clipPath id="XMLID_49_">
				<use xlink:href="#XMLID_14_"  style="overflow:visible;"/>
			</clipPath>
			<path id="XMLID_16_" class="st5" d="M250,338.9c96.9,0,175.4-39.8,175.4-88.9s-78.5-88.9-175.4-88.9
				c-96.9,0-175.4,39.8-175.4,88.9S153.1,338.9,250,338.9"/>
			<path id="XMLID_19_" class="st6" d="M285.5,278.7l8.7-44.8c2-10.1,0.3-17.6-4.9-22.4c-5-4.6-13.5-6.8-26-6.8h-15.1l4.3-22.2
				c0.2-0.8-0.1-1.7-0.6-2.4c-0.5-0.7-1.3-1-2.2-1H229c-1.4,0-2.5,1-2.8,2.3l-9.2,47.5c-0.8-5.3-2.9-9.9-6.2-13.7
				c-6.1-7-15.7-10.5-28.7-10.5h-40.3c-1.4,0-2.5,1-2.8,2.3l-18.7,96.2c-0.2,0.8,0.1,1.7,0.6,2.4c0.5,0.7,1.3,1,2.2,1h21
				c1.4,0,2.5-1,2.8-2.3l4.5-23.3h15.6c8.2,0,15.1-0.9,20.4-2.6c5.5-1.8,10.5-4.8,15-9c3.6-3.3,6.6-7,8.9-11l-3.7,19.2
				c-0.2,0.8,0.1,1.7,0.6,2.4c0.5,0.7,1.3,1,2.2,1h20.8c1.4,0,2.5-1,2.8-2.3l10.3-52.8h14.3c6.1,0,7.9,1.2,8.3,1.7
				c0.4,0.5,1.4,2.1,0.3,7.4l-8.3,42.6c-0.2,0.8,0.1,1.7,0.6,2.4c0.5,0.7,1.3,1,2.2,1h21.1C284.1,281,285.3,280.1,285.5,278.7z
				 M189.1,241.7c-1.3,6.7-3.8,11.5-7.3,14.2c-3.6,2.8-9.4,4.2-17.1,4.2h-9.3l6.7-34.6h12c8.8,0,12.4,1.9,13.8,3.5
				C189.9,231.2,190.3,235.6,189.1,241.7"/>
			<path id="XMLID_22_" class="st6" d="M374.4,215.2c-6.1-7-15.7-10.5-28.7-10.5h-40.3c-1.4,0-2.5,1-2.8,2.3L284,303.2
				c-0.2,0.8,0.1,1.7,0.6,2.4c0.5,0.7,1.3,1,2.2,1h21c1.4,0,2.5-1,2.8-2.3L315,281h15.6c8.2,0,15.1-0.9,20.4-2.6
				c5.5-1.8,10.5-4.8,15-9c3.7-3.4,6.8-7.2,9.1-11.4c2.3-4.1,4-8.8,4.9-13.7C382.5,232,380.6,222.3,374.4,215.2z M352.7,241.7
				c-1.3,6.7-3.8,11.5-7.3,14.2c-3.6,2.8-9.4,4.2-17.1,4.2H319l6.7-34.6h12c8.8,0,12.4,1.9,13.8,3.5
				C353.5,231.2,353.9,235.6,352.7,241.7"/>
			<path id="XMLID_25_" class="st7" d="M174.1,222.7c8,0,13.3,1.5,15.9,4.4c2.7,2.9,3.3,8,1.9,15.1c-1.4,7.4-4.2,12.8-8.4,15.9
				c-4.1,3.2-10.4,4.8-18.9,4.8h-12.7l7.8-40.3H174.1L174.1,222.7z M123,303.8h21l5-25.6h18c7.9,0,14.4-0.8,19.6-2.5
				c5.1-1.7,9.8-4.5,13.9-8.4c3.5-3.2,6.4-6.8,8.5-10.7c2.2-3.9,3.7-8.2,4.6-12.9c2.2-11.4,0.5-20.3-5-26.7
				c-5.6-6.4-14.4-9.5-26.5-9.5h-40.3L123,303.8"/>
			<path id="XMLID_26_" class="st7" d="M229,182h20.8l-5,25.6h18.5c11.7,0,19.7,2,24.1,6.1c4.4,4.1,5.8,10.7,4,19.8l-8.7,44.8h-21.1
				l8.3-42.6c0.9-4.8,0.6-8.1-1-9.9c-1.6-1.8-5.1-2.6-10.4-2.6h-16.6l-10.7,55.1h-20.8L229,182"/>
			<path id="XMLID_29_" class="st7" d="M337.7,222.7c8,0,13.3,1.5,15.9,4.4c2.7,2.9,3.3,8,1.9,15.1c-1.4,7.4-4.2,12.8-8.4,15.9
				c-4.1,3.2-10.4,4.8-18.9,4.8h-12.7l7.8-40.3H337.7L337.7,222.7z M286.6,303.8h21l5-25.6h18c7.9,0,14.4-0.8,19.6-2.5
				c5.1-1.7,9.8-4.5,13.9-8.4c3.5-3.2,6.4-6.8,8.5-10.7c2.2-3.9,3.7-8.2,4.6-12.9c2.2-11.4,0.5-20.3-5-26.7
				c-5.6-6.4-14.4-9.5-26.5-9.5h-40.3L286.6,303.8"/>
		</g>
	</g>
</g>
</svg>
