<?xml version="1.0" encoding="utf-8"?>
<!-- Generator: Adobe Illustrator 24.1.1, SVG Export Plug-In . SVG Version: 6.00 Build 0)  -->
<svg version="1.1" id="Layer_1" xmlns="http://www.w3.org/2000/svg" xmlns:xlink="http://www.w3.org/1999/xlink" x="0px" y="0px"
	 viewBox="0 0 512 512" style="enable-background:new 0 0 512 512;" xml:space="preserve">
<g>
	<path d="M288.6,2.1C148.4-15.8,20.1,83.2,2.1,223.4c-17.9,140.2,81.1,268.5,221.3,286.5c140.2,17.9,268.5-81.1,286.4-221.3
		C527.9,148.3,428.9,20.1,288.6,2.1z M341.3,161.8c-4.8,0-9.3,1.9-12.6,5.3l-95,94.9l-6.6-6.5l-13.7-13.7
		C307,148.5,324,147.6,341.3,161.8L341.3,161.8z M237.6,265.5l94.7-94.7c5.2-5.5,14-5.4,19.3,0.1c5.2,5.6,4.6,14.3-1.2,19.2
		l-100.2,88L237.6,265.5z M244.6,280.3l-23.5,5.1l-1.4-0.8l0.3-1.5l13.7-13.7L244.6,280.3z M184.8,270.5l25.1-25l18.7,18.7
		l-42.3,9.1l-1.8-0.8L184.8,270.5z M107,399.7l-1.5-1.7l0.5-1h0.1l20.2-20.2l26.1,26.1L107,399.7z M158.8,372.9
		c-2,1.1-3,3.3-2.5,5.5l4.3,18.4c0.7,2.7-2.6,4.5-4.5,2.5H156l-26.2-26.2l80.2-80.2l38.8-8.4l18.6,18.7
		C240.8,326.7,204.2,350.2,158.8,372.9L158.8,372.9z M271.4,299.8l-17.9-17.9l100.2-88l2.5-2.7C353.1,219.9,312.9,260.4,271.4,299.8
		z M349.5,162L349.5,162c-35-35.1,14.3-89,52.3-57.3l-34.3,34.4v3.6l26.6,26.6C379.1,176.8,361.2,173.8,349.5,162z M404.4,162
		c-1.7,1.7-3.7,3.3-5.7,4.7l-25.7-25.7l32.7-32.8C419.7,123.6,419.1,147.3,404.4,162z M402.3,129.1l-1.2,3.3
		c1.6,3.2,1.2,6.9-1.1,9.6l0.5,4.2l1.8,0.6l2.3-1c3.8-4.5,4.5-10.8,1.9-16.1L402.3,129.1z"/>
</g>
</svg>
