<?xml version="1.0" encoding="utf-8"?>
<!-- Generator: Adobe Illustrator 24.1.1, SVG Export Plug-In . SVG Version: 6.00 Build 0)  -->
<svg version="1.1" id="Layer_1" xmlns="http://www.w3.org/2000/svg" xmlns:xlink="http://www.w3.org/1999/xlink" x="0px" y="0px"
	 viewBox="0 0 512 512" style="enable-background:new 0 0 512 512;" xml:space="preserve">
<style type="text/css">
	.st0{fill:url(#SVGID_1_);}
	.st1{fill:#2B2B2B;}
	.st2{fill:#EEEEEE;}
	.st3{fill:#232323;}
</style>
<g>
	
		<radialGradient id="SVGID_1_" cx="0.5843" cy="512.5461" r="2.0014" gradientTransform="matrix(237.7585 0 0 237.7585 -115.9204 -121393.6563)" gradientUnits="userSpaceOnUse">
		<stop  offset="0" style="stop-color:#212121"/>
		<stop  offset="1" style="stop-color:#B8B8B8"/>
	</radialGradient>
	<path class="st0" d="M374.9,51.2H90.7c-43.1,0-78.1,35-78.1,78.1v284.2c0,43.1,35,78.1,78.1,78.1h284.2c43.1,0,78.1-35,78.1-78.1
		V129.3c0-2.9-0.2-5.8-0.5-8.6l-9.1,9.4c0.1,1.3,0.1,2.6,0.1,3.9v168.7c0,40-32.4,72.5-72.5,72.5H92.8c-40,0-72.5-32.4-72.5-72.5
		V134c0-40,32.4-72.5,72.5-72.5h278.3c17.7,0,33.9,6.3,46.4,16.8l8.1-8.5C412,58.2,394.3,51.2,374.9,51.2"/>
	<path class="st1" d="M90.7,51.2c-43.1,0-78.1,35-78.1,78.1v284.2c0,43.1,35,78.1,78.1,78.1h284.2c43.1,0,78.1-35,78.1-78.1V129.3
		c0-43.1-35-78.1-78.1-78.1H90.7 M90.7,38.5h284.2c50.1,0,90.7,40.6,90.7,90.7v284.2c0,50.1-40.6,90.7-90.7,90.7H90.7
		C40.6,504.2,0,463.6,0,413.5V129.3C0,79.2,40.6,38.5,90.7,38.5"/>
	<g>
		<defs>
			<path id="SVGID_2_" d="M371.2,61.5H92.8c-40,0-72.5,32.4-72.5,72.5v168.7c0,40,32.4,72.5,72.5,72.5h278.3
				c40,0,72.5-32.4,72.5-72.5V134c0-1.3,0-2.6-0.1-3.9L300.9,277.8l-85.2-90.9l4.3-6.4l-0.9-0.7l6.2-7.2l22.3-33.4l59.1,55.7
				l111-116.5C405,67.8,388.8,61.5,371.2,61.5"/>
		</defs>
		<clipPath id="SVGID_3_">
			<use xlink:href="#SVGID_2_"  style="overflow:visible;"/>
		</clipPath>
		<g style="clip-path:url(#SVGID_3_);">
			
				<image style="overflow:visible;" width="444" height="329" xlink:href="547015D8.jpg"  transform="matrix(0.9607 0 0 -0.9607 18.676 376.3626)">
			</image>
		</g>
	</g>
	<path class="st2" d="M198.8,287.8l-41.6,13.9c-5.6-16.5-17.5-24.8-35.6-24.8c-19.4,0-29.1,6.3-29.1,18.8c0,5,1.8,9.2,5.4,12.7
		c3.6,3.5,11.8,6.5,24.5,9c21.3,4.3,36.9,8.6,46.8,13c9.9,4.4,18.2,11.4,25,21.2c6.8,9.7,10.2,20.6,10.2,32.6
		c0,18.9-7.3,35.2-21.8,48.9c-14.5,13.8-36.1,20.6-64.6,20.6c-21.4,0-39.6-4.9-54.7-14.6c-15-9.7-25-24.2-29.7-43.4l45.3-10.2
		c5.1,19.5,19.3,29.2,42.5,29.2c11.2,0,19.6-2.2,25.1-6.5c5.5-4.3,8.3-9.5,8.3-15.5c0-6.1-2.5-10.9-7.5-14.2
		c-5-3.4-14.6-6.5-28.9-9.5c-26.6-5.5-45.6-13-56.9-22.6c-11.3-9.5-17-23.5-17-41.8c0-18.6,6.8-34.2,20.3-46.9
		c13.5-12.7,31.8-19.1,55-19.1C160.8,238.7,187.1,255.1,198.8,287.8z M362.7,381.1h-99.4c-0.1,2.8-0.2,5.1-0.2,7.2
		c0,11,2.9,19.3,8.8,24.9c5.9,5.6,12.9,8.4,21,8.4c15.2,0,24.3-8.1,27.4-24.3l41.3,3.1c-11.5,35.7-34.9,53.5-70.2,53.5
		c-15.4,0-28.5-3.1-39.2-9.3c-10.8-6.2-19.6-15.2-26.6-27c-7-11.8-10.5-26-10.5-42.5c0-24.6,7-44.4,21-59.5
		c14-15.1,32-22.6,54.1-22.6c19.9,0,36.9,7,51.2,21S362.7,350.4,362.7,381.1z M263.2,354.7h54.9c-1.4-21.2-10.1-31.8-26.1-31.8
		C274.8,322.9,265.2,333.5,263.2,354.7z"/>
	<path class="st3" d="M119.8,242.4c-22.3,0-39.7,6.1-52.5,18.1c-12.8,12.1-19.1,26.8-19.1,44.3c0,17.3,5.2,30.3,15.7,39.1
		c10.8,9.1,29.2,16.4,55.3,21.8c14.7,3,24.7,6.3,30.2,10c6,4,9.1,9.9,9.1,17.2c0,7.2-3.3,13.4-9.6,18.4c-6.2,4.9-15.4,7.3-27.3,7.3
		c-23.5,0-38.7-9.6-45-28.5l-38.3,8.7c4.9,16.5,13.9,29,27.2,37.6c14.4,9.3,32,14,52.7,14c27.7,0,48.3-6.6,62.1-19.7
		c13.8-13.1,20.7-28.5,20.7-46.3c0-11.3-3.2-21.5-9.5-30.6c-6.4-9.2-14.2-15.8-23.5-19.9c-9.6-4.3-25-8.5-46-12.8
		c-13.4-2.7-22.1-5.9-26.3-10c-4.3-4.1-6.5-9.3-6.5-15.3c0-15,11.6-22.4,32.7-22.4c18.4,0,31.2,8.1,37.8,23.9l34.7-11.6
		C182.3,256.7,157.8,242.4,119.8,242.4z M155,306.3l-1.2-3.4c-5.1-15-15.6-22.3-32.2-22.3c-17.6,0-25.4,5.1-25.4,15.2
		c0,4,1.4,7.3,4.3,10.1c3,2.8,10.6,5.7,22.8,8.1c21.5,4.3,37.4,8.7,47.5,13.2c10.5,4.7,19.4,12.2,26.5,22.4
		c7.2,10.3,10.8,22,10.8,34.7c0,19.9-7.7,37.1-22.9,51.6c-15.3,14.5-37.7,21.6-67.1,21.6c-22.1,0-41-5.1-56.6-15.2
		c-15.8-10.2-26.3-25.5-31.3-45.5l-0.9-3.6l52.3-11.8l0.9,3.4c4.7,17.8,17.3,26.5,39,26.5c10.5,0,18.1-2,22.8-5.7
		c4.7-3.7,6.9-7.8,6.9-12.7c0-4.9-1.9-8.5-5.9-11.2c-4.5-3-13.8-6.1-27.6-8.9c-27.1-5.6-46.6-13.3-58.5-23.3
		c-12.2-10.3-18.3-25.2-18.3-44.6c0-19.6,7.2-36.2,21.4-49.6c14.2-13.4,33.4-20.1,57.5-20.1c42.4,0,70.2,17.2,82.5,51.5l1.2,3.5
		L155,306.3z M338.8,316.6c-13.5-13.4-29.7-20-48.6-20c-21,0-38.1,7.1-51.4,21.5c-13.4,14.4-20.1,33.3-20.1,57
		c0,15.9,3.3,29.4,10,40.7c6.7,11.3,15.1,19.8,25.3,25.7c10.2,5.8,22.6,8.8,37.4,8.8c32.2,0,53.8-15.4,65.2-46.6l-33.5-2.5
		c-4,15.8-14.3,24.1-30.2,24.1c-9.1,0-17-3.2-23.5-9.4c-6.6-6.4-9.9-15.6-9.9-27.5c0-2.1,0.1-4.5,0.2-7.3l0.1-3.5h99.2
		C358.5,349.6,351.7,329.3,338.8,316.6z M266.8,388.3c0,10.1,2.6,17.5,7.7,22.3c5.2,5,11.3,7.4,18.5,7.4c13.4,0,21.1-6.8,23.8-21.4
		l0.6-3.2l49.1,3.6l-1.4,4.4c-12,37.1-36.8,56-73.6,56c-16,0-29.7-3.2-41-9.7c-11.3-6.5-20.6-15.9-27.9-28.3
		c-7.3-12.4-11-27.2-11-44.4c0-25.4,7.3-46.2,22-62c14.7-15.8,33.7-23.8,56.7-23.8c20.8,0,38.8,7.4,53.7,22.1
		c15,14.8,22.4,38.1,22.4,69.6v3.6h-99.5C266.8,386,266.8,387.2,266.8,388.3z M259.2,358.3l0.4-4c2.2-22.9,13.2-35.1,32.4-35.1
		c18.1,0,28.2,12.3,29.8,35.2l0.3,3.9H259.2z M314.1,351c-2-16.8-9.3-24.6-22.2-24.6c-14,0-22.1,7.8-24.7,24.6H314.1z"/>
	<g>
		<defs>
			<path id="SVGID_4_" d="M499.9,50.4l-42.4,41.1c2.6,5.7,4.6,11.7,6,17.9l44-45.6L499.9,50.4 M479.1,13.8l-44.7,46.9
				c0.4,0.3,0.7,0.6,1.1,1l44.2-46.9L479.1,13.8"/>
		</defs>
		<clipPath id="SVGID_5_">
			<use xlink:href="#SVGID_4_"  style="overflow:visible;"/>
		</clipPath>
		<g style="clip-path:url(#SVGID_5_);">
			
				<image style="overflow:visible;" width="79" height="103" xlink:href="547015D9.jpg"  transform="matrix(0.9607 0 0 -0.9607 432.722 111.2196)">
			</image>
		</g>
	</g>
	<g>
		<defs>
			<path id="SVGID_6_" d="M447.7,100.9l-8.5,8.2c2.4,6.6,3.9,13.6,4.3,21l9.1-9.4C451.8,113.8,450.2,107.1,447.7,100.9 M425.7,69.9
				l-8.1,8.5c0.4,0.3,0.8,0.7,1.2,1l8-8.5C426.4,70.5,426.1,70.2,425.7,69.9"/>
		</defs>
		<clipPath id="SVGID_7_">
			<use xlink:href="#SVGID_6_"  style="overflow:visible;"/>
		</clipPath>
		<g style="clip-path:url(#SVGID_7_);">
			
				<image style="overflow:visible;" width="39" height="66" xlink:href="547015DF.jpg"  transform="matrix(0.9607 0 0 -0.9607 416.3907 131.3935)">
			</image>
		</g>
	</g>
	<g>
		<defs>
			<path id="SVGID_8_" d="M457.4,91.5l-9.7,9.4c2.4,6.3,4.1,12.9,4.9,19.8l10.9-11.3C462.1,103.2,460.1,97.2,457.4,91.5 M434.4,60.7
				l-8.7,9.1c0.4,0.3,0.8,0.7,1.2,1l8.6-9.2C435.1,61.4,434.7,61,434.4,60.7"/>
		</defs>
		<clipPath id="SVGID_9_">
			<use xlink:href="#SVGID_8_"  style="overflow:visible;"/>
		</clipPath>
		<g style="clip-path:url(#SVGID_9_);">
			
				<image style="overflow:visible;" width="43" height="65" xlink:href="547015DA.jpg"  transform="matrix(0.9607 0 0 -0.9607 424.076 121.7868)">
			</image>
		</g>
	</g>
	<g>
		<defs>
			<path id="SVGID_10_" d="M439.2,109.1L303.1,240.8l-83.2-60.4l-4.3,6.4l85.2,90.9l142.7-147.7
				C443.1,122.7,441.7,115.7,439.2,109.1 M417.6,78.3l-111,116.5l-59.1-55.7l-22.3,33.4l23.9-27.9l58,53.4L418.8,79.4
				C418.4,79,418,78.7,417.6,78.3"/>
		</defs>
		<clipPath id="SVGID_11_">
			<use xlink:href="#SVGID_10_"  style="overflow:visible;"/>
		</clipPath>
		<g style="clip-path:url(#SVGID_11_);">
			
				<image style="overflow:visible;" width="240" height="211" xlink:href="547015DB.jpg"  transform="matrix(0.9607 0 0 -0.9607 214.6514 279.3356)">
			</image>
		</g>
	</g>
	<g>
		<defs>
			<polyline id="SVGID_12_" points="480.7,13.7 479.7,14.8 499.9,50.4 500.5,49.9 480.7,13.7 			"/>
		</defs>
		<clipPath id="SVGID_13_">
			<use xlink:href="#SVGID_12_"  style="overflow:visible;"/>
		</clipPath>
		<g style="clip-path:url(#SVGID_13_);">
			
				<image style="overflow:visible;" width="25" height="41" xlink:href="547015D6.jpg"  transform="matrix(0.9607 0 0 -0.9607 477.8732 51.6584)">
			</image>
		</g>
	</g>
	<g>
		<defs>
			<polyline id="SVGID_14_" points="225.2,172.5 219,179.8 219.9,180.5 225.2,172.5 			"/>
		</defs>
		<clipPath id="SVGID_15_">
			<use xlink:href="#SVGID_14_"  style="overflow:visible;"/>
		</clipPath>
		<g style="clip-path:url(#SVGID_15_);">
			
				<image style="overflow:visible;" width="9" height="12" xlink:href="547015D7.jpg"  transform="matrix(0.9607 0 0 -0.9607 217.5334 182.3086)">
			</image>
		</g>
	</g>
	<g>
		<defs>
			<path id="SVGID_16_" d="M479.7,14.8l-44.2,46.9c9.2,8.3,16.7,18.4,22,29.8l42.4-41.1L479.7,14.8"/>
		</defs>
		<clipPath id="SVGID_17_">
			<use xlink:href="#SVGID_16_"  style="overflow:visible;"/>
		</clipPath>
		<g style="clip-path:url(#SVGID_17_);">
			
				<image style="overflow:visible;" width="70" height="83" xlink:href="547015E8.jpg"  transform="matrix(0.9607 0 0 -0.9607 433.6827 92.9669)">
			</image>
		</g>
	</g>
	<g>
		<defs>
			<path id="SVGID_18_" d="M426.8,70.9l-8,8.5c9.1,8,16.2,18.1,20.4,29.7l8.5-8.2C443.2,89.3,436,79,426.8,70.9"/>
		</defs>
		<clipPath id="SVGID_19_">
			<use xlink:href="#SVGID_18_"  style="overflow:visible;"/>
		</clipPath>
		<g style="clip-path:url(#SVGID_19_);">
			
				<image style="overflow:visible;" width="33" height="43" xlink:href="547015EB.jpg"  transform="matrix(0.9607 0 0 -0.9607 417.3514 110.2589)">
			</image>
		</g>
	</g>
	<g>
		<defs>
			<path id="SVGID_20_" d="M435.5,61.7l-8.6,9.2c9.2,8.1,16.4,18.4,20.9,30l9.7-9.4C452.2,80.1,444.7,70,435.5,61.7"/>
		</defs>
		<clipPath id="SVGID_21_">
			<use xlink:href="#SVGID_20_"  style="overflow:visible;"/>
		</clipPath>
		<g style="clip-path:url(#SVGID_21_);">
			
				<image style="overflow:visible;" width="35" height="44" xlink:href="34332887.jpg"  transform="matrix(0.9607 0 0 -0.9607 425.0367 102.5736)">
			</image>
		</g>
	</g>
	<g>
		<defs>
			<path id="SVGID_22_" d="M418.8,79.4L307,198.1l-58-53.4l-23.9,27.9l-5.3,7.9l83.2,60.4l136.2-131.7
				C435,97.5,427.9,87.3,418.8,79.4"/>
		</defs>
		<clipPath id="SVGID_23_">
			<use xlink:href="#SVGID_22_"  style="overflow:visible;"/>
		</clipPath>
		<g style="clip-path:url(#SVGID_23_);">
			
				<image style="overflow:visible;" width="231" height="171" xlink:href="34332885.jpg"  transform="matrix(0.9607 0 0 -0.9607 218.494 241.8697)">
			</image>
		</g>
	</g>
	<path d="M479.8,7.8L512,64.4L300.8,283L211,187.2l35.8-53.7l59.6,56.2L479.8,7.8z M300.9,272.5L503,63.3l-24.7-43.4L306.7,199.9
		l-58.6-55.2l-27.8,41.8L300.9,272.5z"/>
</g>
</svg>
