<?xml version="1.0" encoding="utf-8"?>
<!-- Generator: Adobe Illustrator 24.1.1, SVG Export Plug-In . SVG Version: 6.00 Build 0)  -->
<svg version="1.1" id="Layer_1" xmlns="http://www.w3.org/2000/svg" xmlns:xlink="http://www.w3.org/1999/xlink" x="0px" y="0px"
	 viewBox="0 0 512 512" style="enable-background:new 0 0 512 512;" xml:space="preserve">
<style type="text/css">
	.st0{fill:#007ACC;}
	.st1{fill:#FFFFFF;}
</style>
<g>
	<polygon class="st0" points="0,256 0,512 256,512 512,512 512,256 512,0 256,0 0,0 	"/>
	<path class="st1" d="M113.2,257.7l-0.2,21h33.3h33.3v94.7V468h23.6h23.6v-94.7v-94.7h33.3h33.3v-20.6c0-11.4-0.2-20.9-0.6-21.1
		c-0.2-0.3-40.8-0.5-90-0.4l-89.5,0.2L113.2,257.7z"/>
	<path class="st1" d="M413.1,236.2c13,3.3,22.9,9,32,18.4c4.7,5,11.7,14.2,12.3,16.4c0.2,0.7-22.1,15.6-35.6,24
		c-0.5,0.3-2.4-1.8-4.6-5c-6.6-9.6-13.5-13.7-24.1-14.5c-15.5-1.1-25.5,7.1-25.4,20.6c0,4,0.6,6.3,2.2,9.6
		c3.4,7.1,9.8,11.3,29.7,19.9c36.7,15.8,52.3,26.2,62.1,41c10.9,16.5,13.3,42.8,5.9,62.4c-8.1,21.3-28.3,35.8-56.6,40.6
		c-8.8,1.5-29.6,1.3-39-0.4c-20.6-3.7-40.1-13.8-52.1-27.1c-4.7-5.2-13.9-18.8-13.3-19.7c0.2-0.3,2.4-1.6,4.7-3
		c2.3-1.3,10.9-6.3,19-11l14.7-8.5l3.1,4.6c4.3,6.6,13.7,15.6,19.4,18.6c16.3,8.6,38.8,7.4,49.8-2.5c4.7-4.3,6.7-8.8,6.7-15.4
		c0-5.9-0.7-8.5-3.8-13c-4-5.7-12.1-10.5-35.2-20.5c-26.4-11.4-37.8-18.4-48.2-29.7c-6-6.5-11.7-16.9-14.1-25.6
		c-2-7.2-2.4-25.4-0.9-32.7c5.4-25.5,24.7-43.3,52.5-48.6C383.3,233.4,404.3,234,413.1,236.2z"/>
</g>
</svg>
